<?xml version="1.0" encoding="UTF-8" standalone="no"?>
<!-- Created with Inkscape (http://www.inkscape.org/) -->

<svg
   xmlns:dc="http://purl.org/dc/elements/1.1/"
   xmlns:cc="http://creativecommons.org/ns#"
   xmlns:rdf="http://www.w3.org/1999/02/22-rdf-syntax-ns#"
   xmlns:svg="http://www.w3.org/2000/svg"
   xmlns="http://www.w3.org/2000/svg"
   xmlns:xlink="http://www.w3.org/1999/xlink"
   xmlns:sodipodi="http://sodipodi.sourceforge.net/DTD/sodipodi-0.dtd"
   xmlns:inkscape="http://www.inkscape.org/namespaces/inkscape"
   width="200"
   height="60"
   viewBox="0 0 52.916665 15.875"
   version="1.1"
   id="svg8"
   sodipodi:docname="clients.svg"
   inkscape:version="0.92.4 (5da689c313, 2019-01-14)">
  <defs
     id="defs2">
    <linearGradient
       inkscape:collect="always"
       id="linearGradient8506">
      <stop
         style="stop-color:#0088aa;stop-opacity:1;"
         offset="0"
         id="stop8502" />
      <stop
         style="stop-color:#0088aa;stop-opacity:0;"
         offset="1"
         id="stop8504" />
    </linearGradient>
    <radialGradient
       inkscape:collect="always"
       xlink:href="#linearGradient8506"
       id="radialGradient8510"
       cx="81.711304"
       cy="10.106916"
       fx="81.711304"
       fy="10.106916"
       r="100.38379"
       gradientTransform="matrix(1.1245222,0,0,0.29892112,-12.468633,21.325457)"
       gradientUnits="userSpaceOnUse" />
  </defs>
  <sodipodi:namedview
     id="base"
     pagecolor="#ffffff"
     bordercolor="#666666"
     borderopacity="1.0"
     inkscape:pageopacity="0.0"
     inkscape:pageshadow="2"
     inkscape:zoom="2.8"
     inkscape:cx="-7.4654889"
     inkscape:cy="53.325276"
     inkscape:document-units="mm"
     inkscape:current-layer="layer1"
     showgrid="false"
     units="px"
     inkscape:window-width="1845"
     inkscape:window-height="900"
     inkscape:window-x="2496"
     inkscape:window-y="153"
     inkscape:window-maximized="0" />
  <metadata
     id="metadata5">
    <rdf:RDF>
      <cc:Work
         rdf:about="">
        <dc:format>image/svg+xml</dc:format>
        <dc:type
           rdf:resource="http://purl.org/dc/dcmitype/StillImage" />
        <dc:title />
      </cc:Work>
    </rdf:RDF>
  </metadata>
  <g
     inkscape:label="Layer 1"
     inkscape:groupmode="layer"
     id="layer1"
     transform="translate(0,-281.12498)">
    <path
       style="opacity:1;fill:#cddc23;fill-opacity:1;stroke:#1a1a1a;stroke-width:0;stroke-linecap:round;stroke-linejoin:round;stroke-miterlimit:4;stroke-dasharray:none;stroke-dashoffset:0;stroke-opacity:1;paint-order:stroke markers fill"
       d="M 31.707031,0.41210938 C 11.736273,0.56468272 5.1538048,20.404699 -0.25195312,60.251953 8.0461612,7.0328791 19.004684,-7.6784961 80.111328,25.625 95.351517,33.931003 95.797366,30.55936 124.75391,27.013672 154.68816,23.348244 161.37956,57.744353 192.97656,60.25 161.37954,57.242278 154.68817,15.95167 124.75391,20.351562 95.797366,24.607726 95.82866,27.526228 80.111328,18.6875 58.327436,6.4372563 42.91014,0.32651945 31.707031,0.41210938 Z M 193.01172,60.251953 c 2.3576,0.222176 4.84909,0.238839 7.5039,0 -2.65479,0.19897 -5.14631,0.185084 -7.5039,0 z"
       id="rect824"
       inkscape:connector-curvature="0"
       transform="matrix(0.26458333,0,0,0.26458333,0,281.12498)" />
    <path
       inkscape:connector-curvature="0"
       id="path8479"
       d="M 31.707031,0.41210938 C 11.736273,0.56468272 5.1538048,20.404699 -0.25195312,60.251953 8.0461612,7.0328791 19.004684,-7.6784961 80.111328,25.625 95.351517,33.931003 95.797366,30.55936 124.75391,27.013672 154.68816,23.348244 161.37956,57.744353 192.97656,60.25 161.37954,57.242278 154.68817,15.95167 124.75391,20.351562 95.797366,24.607726 95.82866,27.526228 80.111328,18.6875 58.327436,6.4372563 42.91014,0.32651945 31.707031,0.41210938 Z M 193.01172,60.251953 c 2.3576,0.222176 4.84909,0.238839 7.5039,0 -2.65479,0.19897 -5.14631,0.185084 -7.5039,0 z"
       style="opacity:1;fill:url(#radialGradient8510);fill-opacity:1;stroke:#1a1a1a;stroke-width:0;stroke-linecap:round;stroke-linejoin:round;stroke-miterlimit:4;stroke-dasharray:none;stroke-dashoffset:0;stroke-opacity:1;paint-order:stroke markers fill"
       transform="matrix(0.26458333,0,0,0.26458333,0,281.12498)"
       sodipodi:nodetypes="scsscscsccc" />
  </g>
</svg>
