<?xml version="1.0" encoding="UTF-8"?>
<svg width="280" height="380" version="1.1" viewBox="0 0 74.083 100.54" xmlns="http://www.w3.org/2000/svg" xmlns:cc="http://creativecommons.org/ns#" xmlns:dc="http://purl.org/dc/elements/1.1/" xmlns:rdf="http://www.w3.org/1999/02/22-rdf-syntax-ns#">
<metadata>
<rdf:RDF>
<cc:Work rdf:about="">
<dc:format>image/svg+xml</dc:format>
<dc:type rdf:resource="http://purl.org/dc/dcmitype/StillImage"/>
<dc:title/>
</cc:Work>
</rdf:RDF>
</metadata>
<g transform="translate(0 -196.46)" stroke-width="0">
<path d="m-0.068294 196.4h74.231v20.917c-25.342-0.29893-55.054-2.7833-74.231 0z" fill="#212121" style="paint-order:stroke markers fill"/>
<path d="m-0.068294 217.32c8.8158-3.0546 29.979-4.2549 74.175 0-12.942 2.6773-44.303-1.9224-74.175 0z" fill="#fc0" style="paint-order:stroke markers fill"/>
<g transform="matrix(-.8 0 0 -.8 73.146 365.75)" fill="#666">
<rect x="1.1752" y="197.32" width="8.4667" height="8.4667" ry="4.2333" style="paint-order:stroke markers fill"/>
<path d="m1.4703 202.74 4.5625 1.2556c-1.3861 1.5026 0.076801 4.1198 1.9471 5.2676-2.9273-7e-3 -6.1709-4.2844-6.5096-6.5231z" style="paint-order:stroke markers fill"/>
<rect x="10.785" y="197.34" width="8.4667" height="8.4667" ry="4.2333" style="paint-order:stroke markers fill"/>
<path d="m11.08 202.77 4.5625 1.2556c-1.3861 1.5026 0.0768 4.1198 1.9471 5.2676-2.9273-7e-3 -6.1709-4.2844-6.5096-6.5231z" style="paint-order:stroke markers fill"/>
</g>
</g>
</svg>
