<?xml version="1.0" encoding="UTF-8" standalone="no"?>
<!-- Created with Inkscape (http://www.inkscape.org/) -->

<svg
   xmlns:dc="http://purl.org/dc/elements/1.1/"
   xmlns:cc="http://creativecommons.org/ns#"
   xmlns:rdf="http://www.w3.org/1999/02/22-rdf-syntax-ns#"
   xmlns:svg="http://www.w3.org/2000/svg"
   xmlns="http://www.w3.org/2000/svg"
   xmlns:sodipodi="http://sodipodi.sourceforge.net/DTD/sodipodi-0.dtd"
   xmlns:inkscape="http://www.inkscape.org/namespaces/inkscape"
   width="200"
   height="150"
   viewBox="0 0 52.916665 39.687501"
   version="1.1"
   id="svg8"
   sodipodi:docname="corner.svg"
   inkscape:version="0.92.4 (5da689c313, 2019-01-14)">
  <defs
     id="defs2" />
  <sodipodi:namedview
     id="base"
     pagecolor="#ffffff"
     bordercolor="#666666"
     borderopacity="1.0"
     inkscape:pageopacity="0.0"
     inkscape:pageshadow="2"
     inkscape:zoom="7.919596"
     inkscape:cx="181.84093"
     inkscape:cy="155.56605"
     inkscape:document-units="mm"
     inkscape:current-layer="layer1"
     showgrid="false"
     units="px"
     inkscape:window-width="1845"
     inkscape:window-height="900"
     inkscape:window-x="2598"
     inkscape:window-y="106"
     inkscape:window-maximized="0" />
  <metadata
     id="metadata5">
    <rdf:RDF>
      <cc:Work
         rdf:about="">
        <dc:format>image/svg+xml</dc:format>
        <dc:type
           rdf:resource="http://purl.org/dc/dcmitype/StillImage" />
        <dc:title></dc:title>
      </cc:Work>
    </rdf:RDF>
  </metadata>
  <g
     inkscape:label="Layer 1"
     inkscape:groupmode="layer"
     id="layer1"
     transform="translate(0,-257.31248)">
    <path
       style="opacity:1;fill:#9e9d2f;fill-opacity:1;stroke:#000000;stroke-width:0;stroke-linecap:round;stroke-linejoin:round;stroke-miterlimit:4;stroke-dasharray:none;stroke-dashoffset:0;stroke-opacity:1;paint-order:stroke markers fill"
       d="m 0.00830057,257.25198 52.92500743,-0.008 0.01122,39.83161 v 0 C 38.88415,287.78979 36.374027,286.97421 26.798168,277.93578 17.880599,267.10844 13.342243,265.75662 0.00830057,257.25198 Z"
       id="rect815"
       inkscape:connector-curvature="0"
       sodipodi:nodetypes="cccccc" />
    <path
       style="opacity:0.20499998;fill:#827717;fill-opacity:1;stroke:#000000;stroke-width:0;stroke-linecap:round;stroke-linejoin:round;stroke-miterlimit:4;stroke-dasharray:none;stroke-dashoffset:0;stroke-opacity:1;paint-order:stroke markers fill"
       d="m 0.00829938,257.25198 c 7.97970402,3.96025 20.12005762,11.03366 29.18968662,18.42861 11.757369,14.51068 14.33048,12.80133 23.74654,21.39498 v 0 C 38.88415,287.78979 36.374027,286.97421 26.798168,277.93578 17.880599,267.10844 13.342242,265.75662 0.00829938,257.25198 Z"
       id="rect815-4"
       inkscape:connector-curvature="0"
       sodipodi:nodetypes="cccccc" />
    <path
       style="opacity:0.21799999;fill:#827717;fill-opacity:1;stroke:#000000;stroke-width:0;stroke-linecap:round;stroke-linejoin:round;stroke-miterlimit:4;stroke-dasharray:none;stroke-dashoffset:0;stroke-opacity:1;paint-order:stroke markers fill"
       d="m 0.00829744,257.25198 c 7.97970486,3.96025 19.31698456,8.48605 28.38661456,15.881 11.757369,14.51069 15.133553,15.34894 24.549613,23.94259 v 0 C 38.884149,287.78979 36.374026,286.97421 26.798168,277.93578 17.880599,267.10844 13.342242,265.75662 0.00829744,257.25198 Z"
       id="rect815-4-2"
       inkscape:connector-curvature="0"
       sodipodi:nodetypes="cccccc" />
    <path
       style="opacity:0.67000002;fill:#827717;fill-opacity:1;stroke:#000000;stroke-width:0;stroke-linecap:round;stroke-linejoin:round;stroke-miterlimit:4;stroke-dasharray:none;stroke-dashoffset:0;stroke-opacity:1;paint-order:stroke markers fill"
       d="m 0.0082968,257.25198 c 8.0702057,3.55227 18.7665552,4.86655 26.8696962,16.61847 6.839889,22.19525 15.778836,15.28444 26.066531,23.20512 v 0 C 38.88415,287.78979 36.374025,286.97421 26.798168,277.93578 17.880599,267.10844 13.34224,265.75662 0.0082968,257.25198 Z"
       id="rect815-4-2-5"
       inkscape:connector-curvature="0"
       sodipodi:nodetypes="cccccc" />
  </g>
</svg>
