<?xml version="1.0" encoding="UTF-8" standalone="no"?>
<!-- Created with Inkscape (http://www.inkscape.org/) -->

<svg
   xmlns:dc="http://purl.org/dc/elements/1.1/"
   xmlns:cc="http://creativecommons.org/ns#"
   xmlns:rdf="http://www.w3.org/1999/02/22-rdf-syntax-ns#"
   xmlns:svg="http://www.w3.org/2000/svg"
   xmlns="http://www.w3.org/2000/svg"
   xmlns:sodipodi="http://sodipodi.sourceforge.net/DTD/sodipodi-0.dtd"
   xmlns:inkscape="http://www.inkscape.org/namespaces/inkscape"
   width="300"
   height="700"
   viewBox="0 0 79.374998 185.20834"
   version="1.1"
   id="svg4608"
   inkscape:version="0.92.4 (5da689c313, 2019-01-14)"
   sodipodi:docname="prices-gold.svg">
  <defs
     id="defs4602" />
  <sodipodi:namedview
     id="base"
     pagecolor="#ffffff"
     bordercolor="#666666"
     borderopacity="1.0"
     inkscape:pageopacity="0.0"
     inkscape:pageshadow="2"
     inkscape:zoom="2.8"
     inkscape:cx="289.86233"
     inkscape:cy="110.11127"
     inkscape:document-units="mm"
     inkscape:current-layer="layer1"
     showgrid="false"
     inkscape:snap-grids="true"
     inkscape:window-width="2100"
     inkscape:window-height="1234"
     inkscape:window-x="2391"
     inkscape:window-y="-9"
     inkscape:window-maximized="1"
     units="px" />
  <metadata
     id="metadata4605">
    <rdf:RDF>
      <cc:Work
         rdf:about="">
        <dc:format>image/svg+xml</dc:format>
        <dc:type
           rdf:resource="http://purl.org/dc/dcmitype/StillImage" />
        <dc:title></dc:title>
      </cc:Work>
    </rdf:RDF>
  </metadata>
  <g
     inkscape:label="Layer 1"
     inkscape:groupmode="layer"
     id="layer1"
     transform="translate(0,-111.79162)">
    <rect
       id="rect4610"
       width="79.896706"
       height="185.22374"
       x="0.066836417"
       y="111.83507"
       style="fill:#806600;fill-opacity:1;stroke-width:0.19007839" />
    <path
       style="opacity:0.03999999;fill:#ffffff;fill-opacity:1;stroke-width:0.26141456"
       d="M 0.0668364,139.9624 V 111.83507 H 40.043534 80.020245 l -0.0074,17.15845 -0.0074,17.15846 -39.653277,10.90619 C 18.54197,163.05658 0.55597509,167.99257 0.38239299,168.02704 0.20472873,168.06234 0.06678338,155.79565 0.06678338,139.9624 Z"
       id="path4633"
       inkscape:connector-curvature="0" />
    <path
       style="opacity:0.28000004;fill:#806600;fill-opacity:0;stroke-width:0.1889881"
       d="m 0.32947855,167.53501 c -0.0653971,-0.32699 -0.1189064,-13.04294 -0.1189064,-28.25767 V 111.61421 H 20.999263 41.787954 v 17.26981 17.26982 L 22.652909,156.31598 C 12.128634,161.90516 2.8272325,166.8497 1.9831243,167.30384 l -1.53473671,0.82571 z"
       id="path5178"
       inkscape:connector-curvature="0" />
    <path
       style="opacity:0.28000004;fill:#806600;fill-opacity:0;stroke-width:0.1889881"
       d="m 0.32947855,167.53501 c -0.0653971,-0.32699 -0.1189064,-13.04294 -0.1189064,-28.25767 V 111.61421 H 20.999263 41.787954 v 17.26981 17.26982 L 22.652909,156.31598 C 12.128634,161.90516 2.8272325,166.8497 1.9831243,167.30384 l -1.53473671,0.82571 z"
       id="path5180"
       inkscape:connector-curvature="0" />
    <path
       style="opacity:0.28000004;fill:#806600;fill-opacity:0;stroke-width:0.1889881"
       d="m 0.32947855,167.53501 c -0.0653971,-0.32699 -0.1189064,-13.04294 -0.1189064,-28.25767 V 111.61421 H 20.999263 41.787954 v 17.26981 17.26982 L 22.652909,156.31598 C 12.128634,161.90516 2.8272325,166.8497 1.9831243,167.30384 l -1.53473671,0.82571 z"
       id="path5182"
       inkscape:connector-curvature="0" />
    <path
       style="opacity:0.68999999;fill:#ffffff;fill-opacity:0.29803922;stroke-width:0.26265725"
       d="M 80.776194,139.96031 V 111.8309 H 40.421522 0.06683238 l 0.007492,17.15972 0.007492,17.15973 40.02821762,10.90701 c 22.016347,5.99885 40.172397,10.93521 40.34762,10.96968 0.179344,0.0353 0.318593,-12.2323 0.318593,-28.06673 z"
       id="path4633-4"
       inkscape:connector-curvature="0" />
    <path
       style="opacity:0.18999999;fill:#ffffff;fill-opacity:1;stroke-width:0.2640802"
       d="M 0.19541228,286.73263 80.163368,240.7289 79.963539,297.05881 H 0.23347212 Z"
       id="rect5199"
       inkscape:connector-curvature="0"
       sodipodi:nodetypes="ccccc" />
    <path
       style="opacity:0.34000017;fill:#ffffff;fill-opacity:1;stroke-width:0.28478616"
       d="M 0.09490812,267.63167 59.456345,297.05881 v 0 H 0.06683642 Z"
       id="rect5204"
       inkscape:connector-curvature="0"
       sodipodi:nodetypes="ccccc" />
  </g>
</svg>
