<?xml version="1.0" encoding="UTF-8"?>
<svg width="600" height="600" version="1.1" viewBox="0 0 158.75 158.75" xmlns="http://www.w3.org/2000/svg" xmlns:cc="http://creativecommons.org/ns#" xmlns:dc="http://purl.org/dc/elements/1.1/" xmlns:rdf="http://www.w3.org/1999/02/22-rdf-syntax-ns#">
<metadata>
<rdf:RDF>
<cc:Work rdf:about="">
<dc:format>image/svg+xml</dc:format>
<dc:type rdf:resource="http://purl.org/dc/dcmitype/StillImage"/>
<dc:title/>
</cc:Work>
</rdf:RDF>
</metadata>
<g transform="translate(0 -138.25)" stroke-width=".12429">
<path d="m0.066836 177.91c8.8116-9.1553 32.385 6.2032 40.282 7.0084 10.239 1.044 21.817-13.129 43.607-1.402 15.632 6.2967 34.602-5.9062 48.373-6.4441 14.014-0.54741 13.683 4.8727 26.747 0.83779v-39.796h-159.01z" fill="#668000" opacity=".243"/>
<path d="m0.066836 177.91c13.663-7.6883 24.784 3.9522 38.203 3.0396 10.268-0.69834 23.329-13.696 45.119-1.969 15.632 6.2967 30.634-3.6384 44.404-4.1763 14.014-0.54741 18.219 7.1406 31.283 3.1056v-39.796h-159.01z" fill="#450"/>
</g>
</svg>
