<?xml version="1.0" encoding="UTF-8"?>
<svg version="1.1" viewBox="0 0 20 20" xml:space="preserve" xmlns="http://www.w3.org/2000/svg" xmlns:cc="http://creativecommons.org/ns#" xmlns:dc="http://purl.org/dc/elements/1.1/" xmlns:rdf="http://www.w3.org/1999/02/22-rdf-syntax-ns#" xmlns:xlink="http://www.w3.org/1999/xlink"><metadata><rdf:RDF><cc:Work rdf:about=""><dc:format>image/svg+xml</dc:format><dc:type rdf:resource="http://purl.org/dc/dcmitype/StillImage"/><dc:title/></cc:Work></rdf:RDF></metadata>
<g transform="matrix(.047157 0 0 .049854 .63537 -.92402)" fill="#333">
	<g fill="#333">
		<path d="m376.96 120.31c-6.514 0-11.807 5.286-11.807 11.807v215.59c0 22.785-18.539 41.322-41.322 41.322h-258.89c-22.781 0-41.322-18.537-41.322-41.322v-258.89c0-22.786 18.541-41.323 41.322-41.323h258.89c6.525 0 11.809-5.287 11.809-11.807 0-6.521-5.281-11.807-11.809-11.807h-258.89c-35.799 1e-3 -64.936 29.131-64.936 64.936v258.89c0 35.806 29.137 64.936 64.936 64.936h258.89c35.812 0 64.938-29.13 64.938-64.936v-215.59c-2e-3 -6.519-5.282-11.806-11.809-11.806z"/>
		<path d="m420.65 14.931c-4.611-4.612-12.096-4.612-16.693 0l-237.24 237.23-59.297-59.291c-4.611-4.611-12.084-4.611-16.695 0-4.611 4.612-4.611 12.086 0 16.695l67.656 67.639c2.307 2.308 5.328 3.459 8.348 3.459 3.021 0 6.043-1.151 8.348-3.459 0-6e-3 0-0.012 0.012-0.018l245.56-245.56c4.612-4.608 4.612-12.086 0-16.694z"/>
	</g>
</g>















<path d="m2.8641 7.8696c0.31471 0.10943 1.5125-0.1549 1.8058-0.018647 1.2529 0.58213 2.1158 1.6939 3.8906 1.6236 4.5009-1.806 7.9412-7.1475 11.912-10.721l0.16848 2.134c-3.9611 4.2917-6.4219 13.402-12.591 14.535-2.9692-0.90614-4.6041-4.2552-5.1852-7.5532z" fill="#4a0" stroke-width="0" style="paint-order:stroke markers fill"/></svg>
