<?xml version="1.0" encoding="UTF-8" standalone="no"?>
<!-- Generator: Adobe Illustrator 16.0.0, SVG Export Plug-In . SVG Version: 6.00 Build 0)  -->

<svg
   xmlns:dc="http://purl.org/dc/elements/1.1/"
   xmlns:cc="http://creativecommons.org/ns#"
   xmlns:rdf="http://www.w3.org/1999/02/22-rdf-syntax-ns#"
   xmlns:svg="http://www.w3.org/2000/svg"
   xmlns="http://www.w3.org/2000/svg"
   xmlns:xlink="http://www.w3.org/1999/xlink"
   xmlns:sodipodi="http://sodipodi.sourceforge.net/DTD/sodipodi-0.dtd"
   xmlns:inkscape="http://www.inkscape.org/namespaces/inkscape"
   version="1.1"
   id="Capa_1"
   x="0px"
   y="0px"
   width="20"
   height="20"
   viewBox="0 0 20 20"
   xml:space="preserve"
   sodipodi:docname="tick.svg"
   inkscape:version="0.92.4 (5da689c313, 2019-01-14)"><metadata
   id="metadata45"><rdf:RDF><cc:Work
       rdf:about=""><dc:format>image/svg+xml</dc:format><dc:type
         rdf:resource="http://purl.org/dc/dcmitype/StillImage" /><dc:title></dc:title></cc:Work></rdf:RDF></metadata><defs
   id="defs43"><linearGradient
     inkscape:collect="always"
     id="linearGradient3768"><stop
       style="stop-color:#008000;stop-opacity:1;"
       offset="0"
       id="stop3764" /><stop
       style="stop-color:#ffffff;stop-opacity:1"
       offset="1"
       id="stop3766" /></linearGradient><linearGradient
     inkscape:collect="always"
     xlink:href="#linearGradient3768"
     id="linearGradient3770"
     x1="-43.522633"
     y1="38.762974"
     x2="239.21564"
     y2="428.24289"
     gradientUnits="userSpaceOnUse" /></defs><sodipodi:namedview
   pagecolor="#ffffff"
   bordercolor="#666666"
   borderopacity="1"
   objecttolerance="10"
   gridtolerance="10"
   guidetolerance="10"
   inkscape:pageopacity="0"
   inkscape:pageshadow="2"
   inkscape:window-width="2100"
   inkscape:window-height="1234"
   id="namedview41"
   showgrid="false"
   inkscape:zoom="8.9032874"
   inkscape:cx="71.648544"
   inkscape:cy="48.798251"
   inkscape:window-x="2391"
   inkscape:window-y="-9"
   inkscape:window-maximized="1"
   inkscape:current-layer="Capa_1" />
<g
   id="g8"
   style="fill:#ffffff;fill-opacity:1"
   transform="matrix(0.04715724,0,0,0.04985418,0.63536691,-0.9240166)">
	<g
   id="g6"
   style="fill:#ffffff;fill-opacity:1">
		<path
   d="m 376.955,120.307 c -6.514,0 -11.807,5.286 -11.807,11.807 v 215.593 c 0,22.785 -18.539,41.322 -41.322,41.322 H 64.936 c -22.781,0 -41.322,-18.537 -41.322,-41.322 V 88.816 c 0,-22.786 18.541,-41.323 41.322,-41.323 h 258.89 c 6.525,0 11.809,-5.287 11.809,-11.807 0,-6.521 -5.281,-11.807 -11.809,-11.807 H 64.936 C 29.137,23.88 0,53.01 0,88.815 v 258.891 c 0,35.806 29.137,64.936 64.936,64.936 h 258.89 c 35.812,0 64.938,-29.13 64.938,-64.936 V 132.113 c -0.002,-6.519 -5.282,-11.806 -11.809,-11.806 z"
   id="path2"
   style="fill:#ffffff;fill-opacity:1"
   inkscape:connector-curvature="0" />
		<path
   d="m 420.654,14.931 c -4.611,-4.612 -12.096,-4.612 -16.693,0 l -237.24,237.228 -59.297,-59.291 c -4.611,-4.611 -12.084,-4.611 -16.695,0 -4.611,4.612 -4.611,12.086 0,16.695 l 67.656,67.639 c 2.307,2.308 5.328,3.459 8.348,3.459 3.021,0 6.043,-1.151 8.348,-3.459 0,-0.006 0,-0.012 0.012,-0.018 L 420.654,31.625 c 4.612,-4.608 4.612,-12.086 0,-16.694 z"
   id="path4"
   style="fill:#ffffff;fill-opacity:1"
   inkscape:connector-curvature="0" />
	</g>
</g>
<g
   id="g10"
   transform="translate(0,-404.11301)">
</g>
<g
   id="g12"
   transform="translate(0,-404.11301)">
</g>
<g
   id="g14"
   transform="translate(0,-404.11301)">
</g>
<g
   id="g16"
   transform="translate(0,-404.11301)">
</g>
<g
   id="g18"
   transform="translate(0,-404.11301)">
</g>
<g
   id="g20"
   transform="translate(0,-404.11301)">
</g>
<g
   id="g22"
   transform="translate(0,-404.11301)">
</g>
<g
   id="g24"
   transform="translate(0,-404.11301)">
</g>
<g
   id="g26"
   transform="translate(0,-404.11301)">
</g>
<g
   id="g28"
   transform="translate(0,-404.11301)">
</g>
<g
   id="g30"
   transform="translate(0,-404.11301)">
</g>
<g
   id="g32"
   transform="translate(0,-404.11301)">
</g>
<g
   id="g34"
   transform="translate(0,-404.11301)">
</g>
<g
   id="g36"
   transform="translate(0,-404.11301)">
</g>
<g
   id="g38"
   transform="translate(0,-404.11301)">
</g>
<path
   style="fill:#008000;stroke-width:0.0154035"
   d="m 8.3181557,13.027753 c -0.042648,-0.0161 -0.1134337,-0.0587 -0.1573015,-0.0947 -0.043868,-0.036 -0.8052647,-0.83372 -1.6919927,-1.7727 -1.8362297,-1.94447 -1.6985852,-1.77789 -1.6985852,-2.0557 0,-0.14368 0.00408,-0.16688 0.043831,-0.24989 0.054074,-0.11288 0.1618383,-0.22176 0.2749952,-0.27783 0.073596,-0.0365 0.1046551,-0.0424 0.2204926,-0.0417 0.246917,10e-4 0.1134175,-0.121 1.7380589,1.59344 0.7911403,0.83488 1.4450678,1.51795 1.4531718,1.51795 0.0081,0 2.5458552,-2.67589 5.6394462,-5.9464 5.165244,-5.46066 5.63211,-5.9500196 5.715274,-5.9906696 0.07797,-0.0381 0.10935,-0.0442 0.225706,-0.0442 0.1222,0 0.144622,0.005 0.234044,0.0515 0.11725,0.061 0.209304,0.16042 0.265105,0.2862696 0.05528,0.12463 0.05694,0.33211 0.0038,0.46206 -0.03215,0.0785 -0.614124,0.69888 -5.894531,6.28342 -6.5106751,6.88566 -5.9316237,6.29376 -6.1665493,6.30331 -0.095596,0.004 -0.146669,-0.002 -0.2048808,-0.0241 z"
   id="path51"
   inkscape:connector-curvature="0" /></svg>