<?xml version="1.0" encoding="UTF-8" standalone="no"?>
<!-- Generator: Adobe Illustrator 16.0.0, SVG Export Plug-In . SVG Version: 6.00 Build 0)  -->

<svg
   xmlns:dc="http://purl.org/dc/elements/1.1/"
   xmlns:cc="http://creativecommons.org/ns#"
   xmlns:rdf="http://www.w3.org/1999/02/22-rdf-syntax-ns#"
   xmlns:svg="http://www.w3.org/2000/svg"
   xmlns="http://www.w3.org/2000/svg"
   xmlns:xlink="http://www.w3.org/1999/xlink"
   xmlns:sodipodi="http://sodipodi.sourceforge.net/DTD/sodipodi-0.dtd"
   xmlns:inkscape="http://www.inkscape.org/namespaces/inkscape"
   version="1.1"
   id="Capa_1"
   x="0px"
   y="0px"
   width="20"
   height="20"
   viewBox="0 0 20 20"
   xml:space="preserve"
   sodipodi:docname="tick.svg"
   inkscape:version="0.92.4 (5da689c313, 2019-01-14)"><metadata
   id="metadata45"><rdf:RDF><cc:Work
       rdf:about=""><dc:format>image/svg+xml</dc:format><dc:type
         rdf:resource="http://purl.org/dc/dcmitype/StillImage" /><dc:title /></cc:Work></rdf:RDF></metadata><defs
   id="defs43"><linearGradient
     inkscape:collect="always"
     id="linearGradient3768"><stop
       style="stop-color:#008000;stop-opacity:1;"
       offset="0"
       id="stop3764" /><stop
       style="stop-color:#ffffff;stop-opacity:1"
       offset="1"
       id="stop3766" /></linearGradient><linearGradient
     inkscape:collect="always"
     xlink:href="#linearGradient3768"
     id="linearGradient3770"
     x1="-43.522633"
     y1="38.762974"
     x2="239.21564"
     y2="428.24289"
     gradientUnits="userSpaceOnUse" /></defs><sodipodi:namedview
   pagecolor="#ffffff"
   bordercolor="#666666"
   borderopacity="1"
   objecttolerance="10"
   gridtolerance="10"
   guidetolerance="10"
   inkscape:pageopacity="0"
   inkscape:pageshadow="2"
   inkscape:window-width="2100"
   inkscape:window-height="1234"
   id="namedview41"
   showgrid="false"
   inkscape:zoom="17.806575"
   inkscape:cx="30.897301"
   inkscape:cy="21.841916"
   inkscape:window-x="2391"
   inkscape:window-y="-9"
   inkscape:window-maximized="1"
   inkscape:current-layer="Capa_1" />
<g
   id="g8"
   style="fill:#333333;fill-opacity:1"
   transform="matrix(0.04715724,0,0,0.04985418,0.63536691,-0.9240166)">
	<g
   id="g6"
   style="fill:#333333;fill-opacity:1">
		<path
   d="m 376.955,120.307 c -6.514,0 -11.807,5.286 -11.807,11.807 v 215.593 c 0,22.785 -18.539,41.322 -41.322,41.322 H 64.936 c -22.781,0 -41.322,-18.537 -41.322,-41.322 V 88.816 c 0,-22.786 18.541,-41.323 41.322,-41.323 h 258.89 c 6.525,0 11.809,-5.287 11.809,-11.807 0,-6.521 -5.281,-11.807 -11.809,-11.807 H 64.936 C 29.137,23.88 0,53.01 0,88.815 v 258.891 c 0,35.806 29.137,64.936 64.936,64.936 h 258.89 c 35.812,0 64.938,-29.13 64.938,-64.936 V 132.113 c -0.002,-6.519 -5.282,-11.806 -11.809,-11.806 z"
   id="path2"
   style="fill:#333333;fill-opacity:1"
   inkscape:connector-curvature="0" />
		<path
   d="m 420.654,14.931 c -4.611,-4.612 -12.096,-4.612 -16.693,0 l -237.24,237.228 -59.297,-59.291 c -4.611,-4.611 -12.084,-4.611 -16.695,0 -4.611,4.612 -4.611,12.086 0,16.695 l 67.656,67.639 c 2.307,2.308 5.328,3.459 8.348,3.459 3.021,0 6.043,-1.151 8.348,-3.459 0,-0.006 0,-0.012 0.012,-0.018 L 420.654,31.625 c 4.612,-4.608 4.612,-12.086 0,-16.694 z"
   id="path4"
   style="fill:#333333;fill-opacity:1"
   inkscape:connector-curvature="0" />
	</g>
</g>
<g
   id="g10"
   transform="translate(0,-404.11301)">
</g>
<g
   id="g12"
   transform="translate(0,-404.11301)">
</g>
<g
   id="g14"
   transform="translate(0,-404.11301)">
</g>
<g
   id="g16"
   transform="translate(0,-404.11301)">
</g>
<g
   id="g18"
   transform="translate(0,-404.11301)">
</g>
<g
   id="g20"
   transform="translate(0,-404.11301)">
</g>
<g
   id="g22"
   transform="translate(0,-404.11301)">
</g>
<g
   id="g24"
   transform="translate(0,-404.11301)">
</g>
<g
   id="g26"
   transform="translate(0,-404.11301)">
</g>
<g
   id="g28"
   transform="translate(0,-404.11301)">
</g>
<g
   id="g30"
   transform="translate(0,-404.11301)">
</g>
<g
   id="g32"
   transform="translate(0,-404.11301)">
</g>
<g
   id="g34"
   transform="translate(0,-404.11301)">
</g>
<g
   id="g36"
   transform="translate(0,-404.11301)">
</g>
<g
   id="g38"
   transform="translate(0,-404.11301)">
</g>
<path
   style="opacity:1;fill:#44aa00;fill-opacity:1;stroke:#1a1a1a;stroke-width:0;stroke-linecap:round;stroke-linejoin:round;stroke-miterlimit:4;stroke-dasharray:none;stroke-dashoffset:0;stroke-opacity:1;paint-order:stroke markers fill"
   d="M 2.8641107,7.8696489 C 3.1788252,7.9790814 4.376608,7.7147459 4.6698638,7.8510019 5.9227413,8.4331288 6.7856252,9.5448671 8.5604142,9.4746047 13.061341,7.6685646 16.501637,2.3270913 20.472249,-1.2466654 l 0.168477,2.13404316 C 16.679612,5.1790669 14.218831,14.289032 8.0493182,15.422819 5.0801323,14.51668 3.4451992,11.167632 2.8641107,7.8696489 Z"
   id="rect835"
   inkscape:connector-curvature="0"
   sodipodi:nodetypes="csccccc" /></svg>