<?xml version="1.0" encoding="UTF-8" standalone="no"?>
<!-- Created with Inkscape (http://www.inkscape.org/) -->

<svg
   xmlns:dc="http://purl.org/dc/elements/1.1/"
   xmlns:cc="http://creativecommons.org/ns#"
   xmlns:rdf="http://www.w3.org/1999/02/22-rdf-syntax-ns#"
   xmlns:svg="http://www.w3.org/2000/svg"
   xmlns="http://www.w3.org/2000/svg"
   xmlns:sodipodi="http://sodipodi.sourceforge.net/DTD/sodipodi-0.dtd"
   xmlns:inkscape="http://www.inkscape.org/namespaces/inkscape"
   sodipodi:docname="blog.svg"
   inkscape:version="0.92.4 (5da689c313, 2019-01-14)"
   id="svg2020"
   version="1.1"
   viewBox="0 0 132.29167 132.29167"
   height="500"
   width="500"
   enable-background="new">
  <defs
     id="defs2014">
    <filter
       inkscape:collect="always"
       style="color-interpolation-filters:sRGB"
       id="filter12150"
       x="-0.031699906"
       width="1.0633998"
       y="-0.43831171"
       height="1.8766234">
      <feGaussianBlur
         inkscape:collect="always"
         stdDeviation="1.753802"
         id="feGaussianBlur12152" />
      <feBlend
         inkscape:collect="always"
         mode="screen"
         in2="BackgroundImage"
         id="feBlend12154" />
    </filter>
    <filter
       inkscape:collect="always"
       style="color-interpolation-filters:sRGB"
       id="filter14595"
       x="-0.048002734"
       width="1.0960055"
       y="-0.047997266"
       height="1.0959945">
      <feGaussianBlur
         inkscape:collect="always"
         stdDeviation="1.2798833"
         id="feGaussianBlur14597" />
    </filter>
  </defs>
  <sodipodi:namedview
     id="base"
     pagecolor="#ffffff"
     bordercolor="#666666"
     borderopacity="1.0"
     inkscape:pageopacity="0.0"
     inkscape:pageshadow="2"
     inkscape:zoom="1.4"
     inkscape:cx="100.70615"
     inkscape:cy="289.74542"
     inkscape:document-units="px"
     inkscape:current-layer="svg2020"
     showgrid="false"
     units="px"
     inkscape:window-width="1920"
     inkscape:window-height="1001"
     inkscape:window-x="-9"
     inkscape:window-y="-9"
     inkscape:window-maximized="1" />
  <metadata
     id="metadata2017">
    <rdf:RDF>
      <cc:Work
         rdf:about="">
        <dc:format>image/svg+xml</dc:format>
        <dc:type
           rdf:resource="http://purl.org/dc/dcmitype/StillImage" />
        <dc:title />
      </cc:Work>
    </rdf:RDF>
  </metadata>
  <path
     sodipodi:nodetypes="cccccc"
     inkscape:connector-curvature="0"
     id="path11243"
     d="m 49.861083,122.91691 c 40.489633,5.93585 71.494407,-4.56312 83.448437,1.57305 v 0 c -6.57755,7.90549 -31.23765,8.972 -74.915981,4.46568 C 34.7239,125.95826 25.180008,124.24741 0.52916539,129.72318 13.180178,125.45342 19.254006,119.77196 49.861083,122.91691 Z"
     style="opacity:1;fill:#4d4d4d;fill-opacity:1;stroke:#1a1a1a;stroke-width:0;stroke-linecap:round;stroke-linejoin:round;stroke-miterlimit:4;stroke-dasharray:none;stroke-dashoffset:0;stroke-opacity:1;paint-order:stroke markers fill;filter:url(#filter12150)"
     transform="matrix(0.96648032,0,0,1,2.8809917,-1.5875001)" />
  <path
     style="opacity:1;fill:#cddc39;fill-opacity:1;stroke:#1a1a1a;stroke-width:0;stroke-linecap:round;stroke-linejoin:round;stroke-miterlimit:4;stroke-dasharray:none;stroke-dashoffset:0;stroke-opacity:1;paint-order:stroke markers fill"
     d="m 50.047888,118.68355 c 39.132433,5.93585 69.097922,-4.56312 80.651262,1.57305 v 0 c -6.35708,7.90549 -30.19058,8.972 -72.404812,4.46568 -22.87624,-2.99738 -32.100224,-4.70823 -55.9247767,0.76754 12.2269537,-4.26976 18.0971887,-9.95122 47.6783267,-6.80627 z"
     id="rect3115-8"
     inkscape:connector-curvature="0"
     sodipodi:nodetypes="cccccc" />
  <g
     inkscape:label="Layer 1"
     inkscape:groupmode="layer"
     id="layer1"
     transform="translate(0,-164.70831)" />
  <path
     sodipodi:nodetypes="cccccc"
     inkscape:connector-curvature="0"
     id="path9019"
     d="m 64.595807,38.763056 c -1.825,-0.3625 -3.525,1.112499 -3.525,2.974999 v 6.299999 c 0,1.275001 0.8875,2.300002 2.0875,2.75 2.275,0.850001 3.9125,3.05 3.9125,5.625002 0,3.312499 -2.6875,5.999999 -6,5.999999 -3.3125,0 -6,-2.6875 -6,-5.999999 V 25.413055 c 0,-1.6625 -1.3375,-3 -3,-3 h -6 c -1.6625,0 -3,1.3375 -3,3 v 31.000001 c 0,11.187499 10.2625,20.025001 21.875,17.5875 6.799999,-1.425 12.2875,-6.925 13.712501,-13.712499 C 80.833307,49.925555 74.033306,40.638055 64.595807,38.763056 Z m 4.6,-28.350001 c -1.15,-0.0625 -2.125,0.85 -2.125,2 v 3.95 c 0,1.0625 0.825,1.9375 1.875,1.9875 16.174999,0.875 29.175002,14 30.112503,30.187501 0.0625,1.049999 0.937503,1.874999 1.9875,1.874999 h 4.0125 c 1.15,0 2.0625,-0.975 2,-2.124999 C 105.99581,27.888055 89.595807,11.488055 69.195807,10.413055 Z m 0.0375,12 c -1.1625,-0.0875 -2.1625,0.8375 -2.1625,2.0125 v 4.0125 c 0,1.05 0.8125,1.9125 1.85,1.9875 9.599999,0.7875 17.250001,8.525001 18.1125,18.15 0.1,1.0375 0.95,1.8375 1.9875,1.8375 h 4.025 c 1.1625,0 2.100001,-1.000001 2.012501,-2.162501 C 94.008306,34.488055 82.995808,23.475555 69.233307,22.413055 Z"
     style="opacity:1;fill:#4d4d4d;fill-opacity:1;stroke:#1a1a1a;stroke-width:0;stroke-linecap:round;stroke-linejoin:round;stroke-miterlimit:4;stroke-dasharray:none;stroke-dashoffset:0;stroke-opacity:1;paint-order:stroke markers fill;filter:url(#filter14595)" />
  <path
     style="opacity:1;fill:#cddc39;fill-opacity:1;stroke:#1a1a1a;stroke-width:0;stroke-linecap:round;stroke-linejoin:round;stroke-miterlimit:4;stroke-dasharray:none;stroke-dashoffset:0;stroke-opacity:1;paint-order:stroke markers fill"
     d="m 62.327951,36.646388 c -1.825,-0.3625 -3.525,1.112499 -3.525,2.974999 v 6.299999 c 0,1.275001 0.8875,2.300002 2.0875,2.75 2.275,0.850001 3.9125,3.05 3.9125,5.625002 0,3.312499 -2.6875,5.999999 -6,5.999999 -3.3125,0 -6,-2.6875 -6,-5.999999 V 23.296387 c 0,-1.6625 -1.3375,-3 -3,-3 h -6 c -1.6625,0 -3,1.3375 -3,3 v 31.000001 c 0,11.187499 10.2625,20.025001 21.875,17.5875 6.799999,-1.425 12.2875,-6.925 13.712501,-13.712499 C 78.565451,47.808887 71.76545,38.521387 62.327951,36.646388 Z m 4.6,-28.3500002 c -1.15,-0.0625 -2.125,0.85 -2.125,1.9999992 v 3.95 c 0,1.0625 0.825,1.9375 1.875,1.9875 16.174999,0.875 29.175002,14 30.112503,30.187501 0.0625,1.049999 0.937503,1.874999 1.987503,1.874999 h 4.012513 c 1.15,0 2.0625,-0.975 2,-2.124999 C 103.72797,25.771387 87.327951,9.3713878 66.927951,8.2963878 Z m 0.0375,11.9999992 c -1.1625,-0.0875 -2.1625,0.8375 -2.1625,2.0125 v 4.0125 c 0,1.05 0.8125,1.9125 1.85,1.9875 9.599999,0.7875 17.250001,8.525001 18.1125,18.15 0.1,1.0375 0.95,1.8375 1.9875,1.8375 h 4.025 c 1.1625,0 2.100001,-1.000001 2.012501,-2.162501 C 91.74045,32.371387 80.727952,21.358887 66.965451,20.296387 Z"
     id="path9583"
     inkscape:connector-curvature="0"
     sodipodi:nodetypes="cccccc" />
</svg>
