<?xml version="1.0" encoding="UTF-8" standalone="no"?>
<!-- Created with Inkscape (http://www.inkscape.org/) -->

<svg
   xmlns:dc="http://purl.org/dc/elements/1.1/"
   xmlns:cc="http://creativecommons.org/ns#"
   xmlns:rdf="http://www.w3.org/1999/02/22-rdf-syntax-ns#"
   xmlns:svg="http://www.w3.org/2000/svg"
   xmlns="http://www.w3.org/2000/svg"
   xmlns:sodipodi="http://sodipodi.sourceforge.net/DTD/sodipodi-0.dtd"
   xmlns:inkscape="http://www.inkscape.org/namespaces/inkscape"
   sodipodi:docname="demo.svg"
   inkscape:version="0.92.4 (5da689c313, 2019-01-14)"
   id="svg2020"
   version="1.1"
   viewBox="0 0 132.29167 132.29167"
   height="500"
   width="500"
   enable-background="new">
  <defs
     id="defs2014">
    <filter
       inkscape:collect="always"
       style="color-interpolation-filters:sRGB"
       id="filter12134"
       x="-0.053152261"
       width="1.1063045"
       y="-0.068873094"
       height="1.1377462">
      <feGaussianBlur
         inkscape:collect="always"
         stdDeviation="1.6292943"
         id="feGaussianBlur12136" />
    </filter>
    <filter
       inkscape:collect="always"
       style="color-interpolation-filters:sRGB"
       id="filter12150"
       x="-0.031699906"
       width="1.0633998"
       y="-0.43831171"
       height="1.8766234">
      <feGaussianBlur
         inkscape:collect="always"
         stdDeviation="1.753802"
         id="feGaussianBlur12152" />
      <feBlend
         inkscape:collect="always"
         mode="screen"
         in2="BackgroundImage"
         id="feBlend12154" />
    </filter>
  </defs>
  <sodipodi:namedview
     id="base"
     pagecolor="#ffffff"
     bordercolor="#666666"
     borderopacity="1.0"
     inkscape:pageopacity="0.0"
     inkscape:pageshadow="2"
     inkscape:zoom="0.7"
     inkscape:cx="-25.722423"
     inkscape:cy="289.74542"
     inkscape:document-units="px"
     inkscape:current-layer="svg2020"
     showgrid="false"
     units="px"
     inkscape:window-width="1920"
     inkscape:window-height="1001"
     inkscape:window-x="-9"
     inkscape:window-y="-9"
     inkscape:window-maximized="1" />
  <metadata
     id="metadata2017">
    <rdf:RDF>
      <cc:Work
         rdf:about="">
        <dc:format>image/svg+xml</dc:format>
        <dc:type
           rdf:resource="http://purl.org/dc/dcmitype/StillImage" />
        <dc:title />
      </cc:Work>
    </rdf:RDF>
  </metadata>
  <path
     sodipodi:nodetypes="cccccc"
     inkscape:connector-curvature="0"
     id="path11243"
     d="m 49.861083,122.91691 c 40.489633,5.93585 71.494407,-4.56312 83.448437,1.57305 v 0 c -6.57755,7.90549 -31.23765,8.972 -74.915981,4.46568 C 34.7239,125.95826 25.180008,124.24741 0.52916539,129.72318 13.180178,125.45342 19.254006,119.77196 49.861083,122.91691 Z"
     style="opacity:1;fill:#4d4d4d;fill-opacity:1;stroke:#1a1a1a;stroke-width:0;stroke-linecap:round;stroke-linejoin:round;stroke-miterlimit:4;stroke-dasharray:none;stroke-dashoffset:0;stroke-opacity:1;paint-order:stroke markers fill;filter:url(#filter12150)"
     transform="matrix(0.96648032,0,0,1,2.8809917,-1.5875001)" />
  <path
     style="opacity:1;fill:#cddc39;fill-opacity:1;stroke:#1a1a1a;stroke-width:0;stroke-linecap:round;stroke-linejoin:round;stroke-miterlimit:4;stroke-dasharray:none;stroke-dashoffset:0;stroke-opacity:1;paint-order:stroke markers fill"
     d="m 50.047888,118.68355 c 39.132433,5.93585 69.097922,-4.56312 80.651262,1.57305 v 0 c -6.35708,7.90549 -30.19058,8.972 -72.404812,4.46568 -22.87624,-2.99738 -32.100224,-4.70823 -55.9247767,0.76754 12.2269537,-4.26976 18.0971887,-9.95122 47.6783267,-6.80627 z"
     id="rect3115-8"
     inkscape:connector-curvature="0"
     sodipodi:nodetypes="cccccc" />
  <g
     inkscape:label="Layer 1"
     inkscape:groupmode="layer"
     id="layer1"
     transform="translate(0,-164.70831)" />
  <path
     style="opacity:1;fill:#4d4d4d;fill-opacity:1;stroke:#1a1a1a;stroke-width:0;stroke-linecap:round;stroke-linejoin:round;stroke-miterlimit:4;stroke-dasharray:none;stroke-dashoffset:0;stroke-opacity:1;paint-order:stroke markers fill;filter:url(#filter12134)"
     d="m 63.591223,46.815219 c 0.71844,0.69306 1.88288,0.69306 2.60132,0 l 1.30009,-1.254162 c 0.71843,-0.693063 0.71843,-1.816375 0,-2.509436 l -4.10602,-3.959871 4.10487,-3.96098 c 0.71843,-0.693061 0.71843,-1.816374 0,-2.509435 l -1.30009,-1.254162 c -0.71844,-0.693061 -1.88288,-0.693061 -2.60132,0 l -6.70618,6.469306 c -0.71844,0.69306 -0.71844,1.816373 0,2.509433 z m 11.03635,-1.253053 1.30009,1.254162 c 0.71843,0.69306 1.88288,0.69306 2.60131,0 l 6.70619,-6.469306 c 0.71844,-0.693061 0.71844,-1.816374 0,-2.509435 l -6.70619,-6.469306 c -0.71843,-0.69306 -1.88288,-0.69306 -2.60131,0 l -1.30009,1.254164 c -0.71844,0.69306 -0.71844,1.816373 0,2.509433 l 4.10487,3.959872 -4.10487,3.960981 c -0.71844,0.69306 -0.71844,1.816374 0,2.509435 z m 31.376757,18.36888 H 78.133553 c -0.0851,2.19672 -1.69092,3.54847 -3.76347,3.54847 h -6.98896 c -2.14841,0 -3.79565,-1.93724 -3.76691,-3.54847 h -27.49949 c -1.01156,0 -1.8392,0.7984 -1.8392,1.77424 v 1.77423 c 0,3.90332 3.31056,7.09694 7.3568,7.09694 h 58.854397 c 4.04626,0 7.35682,-3.19362 7.35682,-7.09694 v -1.77423 c 0,-0.97584 -0.82764,-1.77424 -1.83921,-1.77424 z m -5.51761,-40.807414 c 0,-2.927488 -2.482917,-5.322706 -5.517597,-5.322706 h -47.8192 c -3.03468,0 -5.5176,2.395218 -5.5176,5.322706 v 37.258944 h 58.854397 z m -7.356797,30.162004 h -44.1408 V 24.897867 h 44.1408 z"
     id="rect3115-8-4"
     inkscape:connector-curvature="0"
     sodipodi:nodetypes="cccccc" />
  <path
     d="m 61.474555,44.698546 c 0.71843,0.69306 1.88288,0.69306 2.60131,0 l 1.30009,-1.25416 c 0.71844,-0.69306 0.71844,-1.816381 0,-2.509441 l -4.10601,-3.95987 4.10486,-3.96098 c 0.71844,-0.69306 0.71844,-1.81637 0,-2.50943 l -1.30008,-1.25417 c -0.71844,-0.69306 -1.88288,-0.69306 -2.60132,0 l -6.70619,6.46931 c -0.71843,0.69306 -0.71843,1.81637 0,2.50943 z m 11.03635,-1.253051 1.30008,1.254159 c 0.71844,0.693061 1.88288,0.693061 2.60132,0 l 6.70618,-6.469309 c 0.71844,-0.69306 0.71844,-1.81637 0,-2.50943 l -6.70618,-6.46931 c -0.71844,-0.69306 -1.88288,-0.69306 -2.60132,0 l -1.30008,1.25417 c -0.71844,0.69306 -0.71844,1.81637 0,2.50943 l 4.10486,3.95987 -4.10486,3.96098 c -0.71844,0.69306 -0.71844,1.816369 0,2.50944 z M 103.88765,61.814378 H 76.016875 c -0.0851,2.19672 -1.69091,3.54847 -3.76346,3.54847 h -6.98896 c -2.14842,0 -3.79565,-1.93725 -3.76691,-3.54847 h -27.49949 c -1.01156,0 -1.8392,0.7984 -1.8392,1.77423 v 1.77424 c 0,3.90331 3.31056,7.09694 7.3568,7.09694 h 58.85441 c 4.046235,0 7.356795,-3.19363 7.356795,-7.09694 v -1.77424 c 0,-0.97583 -0.82764,-1.77423 -1.83921,-1.77423 z m -5.517585,-40.80742 c 0,-2.927488 -2.48293,-5.322706 -5.5176,-5.322706 h -47.81921 c -3.03468,0 -5.5176,2.395218 -5.5176,5.322706 v 37.25895 h 58.85441 z m -7.35681,30.16201 h -44.1408 V 22.781195 h 44.1408 z"
     class=""
     id="path2569-9-9"
     inkscape:connector-curvature="0"
     style="fill:#cddc39;fill-opacity:1;stroke:none;stroke-width:0;stroke-miterlimit:4;stroke-dasharray:none;stroke-opacity:1" />
</svg>
