<?xml version="1.0" encoding="UTF-8" standalone="no"?>
<!-- Created with Inkscape (http://www.inkscape.org/) -->

<svg
   xmlns:dc="http://purl.org/dc/elements/1.1/"
   xmlns:cc="http://creativecommons.org/ns#"
   xmlns:rdf="http://www.w3.org/1999/02/22-rdf-syntax-ns#"
   xmlns:svg="http://www.w3.org/2000/svg"
   xmlns="http://www.w3.org/2000/svg"
   xmlns:sodipodi="http://sodipodi.sourceforge.net/DTD/sodipodi-0.dtd"
   xmlns:inkscape="http://www.inkscape.org/namespaces/inkscape"
   sodipodi:docname="home.svg"
   inkscape:version="0.92.4 (5da689c313, 2019-01-14)"
   id="svg2020"
   version="1.1"
   viewBox="0 0 132.29167 132.29167"
   height="500"
   width="500"
   enable-background="new">
  <defs
     id="defs2014">
    <filter
       inkscape:collect="always"
       style="color-interpolation-filters:sRGB"
       id="filter12150"
       x="-0.031699907"
       width="1.0633998"
       y="-0.4383117"
       height="1.8766234">
      <feGaussianBlur
         inkscape:collect="always"
         stdDeviation="1.753802"
         id="feGaussianBlur12152" />
      <feBlend
         inkscape:collect="always"
         mode="screen"
         in2="BackgroundImage"
         id="feBlend12154" />
    </filter>
    <filter
       inkscape:collect="always"
       style="color-interpolation-filters:sRGB"
       id="filter12760"
       x="-0.053328966"
       width="1.1066579"
       y="-0.06857865"
       height="1.1371573">
      <feGaussianBlur
         inkscape:collect="always"
         stdDeviation="1.5999924"
         id="feGaussianBlur12762" />
    </filter>
  </defs>
  <sodipodi:namedview
     id="base"
     pagecolor="#ffffff"
     bordercolor="#666666"
     borderopacity="1.0"
     inkscape:pageopacity="0.0"
     inkscape:pageshadow="2"
     inkscape:zoom="1.4"
     inkscape:cx="72.857143"
     inkscape:cy="261.17399"
     inkscape:document-units="px"
     inkscape:current-layer="svg2020"
     showgrid="false"
     units="px"
     inkscape:window-width="1920"
     inkscape:window-height="1001"
     inkscape:window-x="-9"
     inkscape:window-y="-9"
     inkscape:window-maximized="1" />
  <metadata
     id="metadata2017">
    <rdf:RDF>
      <cc:Work
         rdf:about="">
        <dc:format>image/svg+xml</dc:format>
        <dc:type
           rdf:resource="http://purl.org/dc/dcmitype/StillImage" />
        <dc:title />
      </cc:Work>
    </rdf:RDF>
  </metadata>
  <path
     d="m 67.298034,32.478826 -23.04625,18.981241 v 20.486255 a 2,2 0 0 0 2,2.00001 l 14.0075,-0.0362 a 2,2 0 0 0 1.99,-2.00001 v -11.96375 a 2,2 0 0 1 2,-2 h 8 a 2,2 0 0 1 2,2 v 11.95499 a 2,2 0 0 0 2,2.00625 l 14.0025,0.0388 a 2,2 0 0 0 2,-2 V 51.446415 L 69.210534,32.478906 a 1.52375,1.52375 0 0 0 -1.9125,10e-6 z M 103.70179,45.380077 93.251784,36.766326 v -17.31375 a 1.5,1.5 0 0 0 -1.5,-1.5 h -7 a 1.5,1.5 0 0 0 -1.5,1.5 v 9.07624 l -11.19125,-9.20749 a 6.0000002,6.0000002 0 0 0 -7.625,0 L 32.794286,45.380077 a 1.5,1.5 0 0 0 -0.2,2.112489 l 3.1875,3.875 a 1.5,1.5 0 0 0 2.11375,0.203761 L 67.298034,27.353826 a 1.52375,1.52375 0 0 1 1.9125,0 l 29.40376,24.217501 a 1.5,1.5 0 0 0 2.112496,-0.200001 l 3.1875,-3.875 a 1.5,1.5 0 0 0 -0.2125,-2.116249 z"
     class=""
     id="path2569-9"
     inkscape:connector-curvature="0"
     style="fill:#4d4d4d;fill-opacity:1;stroke:none;stroke-width:0;stroke-miterlimit:4;stroke-dasharray:none;stroke-opacity:1;filter:url(#filter12760)" />
  <g
     inkscape:label="Layer 1"
     inkscape:groupmode="layer"
     id="layer1"
     transform="translate(0,-164.70831)" />
  <path
     d="m 65.181376,30.362157 -23.04626,18.98124 v 20.48626 a 2,2 0 0 0 2.000002,2 l 14.007508,-0.0362 a 2,2 0 0 0 1.99,-2 v -11.96375 a 2,2 0 0 1 2,-2 h 8 a 2,2 0 0 1 2,2 v 11.95499 a 2,2 0 0 0 2,2.00625 l 14.00249,0.0388 a 2,2 0 0 0 2,-2 v -20.5 l -23.04124,-18.96751 a 1.52375,1.52375 0 0 0 -1.9125,10e-6 z m 36.403734,12.90125 -10.449994,-8.61375 v -17.31375 a 1.5,1.5 0 0 0 -1.5,-1.5 h -7 a 1.5,1.5 0 0 0 -1.5,1.5 v 9.07624 l -11.19124,-9.20749 a 6,6 0 0 0 -7.625,0 l -31.64126,26.05875 a 1.5,1.5 0 0 0 -0.2,2.11249 l 3.1875,3.875 a 1.5,1.5 0 0 0 2.11375,0.20376 l 29.40251,-24.2175 a 1.52375,1.52375 0 0 1 1.9125,0 l 29.40375,24.2175 a 1.5,1.5 0 0 0 2.1125,-0.2 l 3.187484,-3.875 a 1.5,1.5 0 0 0 -0.2125,-2.11625 z"
     class=""
     id="path2569"
     inkscape:connector-curvature="0"
     style="opacity:1;fill:#cddc39;fill-opacity:1;stroke:#ffffff;stroke-width:0;stroke-miterlimit:4;stroke-dasharray:none;stroke-opacity:1" />
  <path
     sodipodi:nodetypes="cccccc"
     inkscape:connector-curvature="0"
     id="path11243"
     d="m 49.861083,122.91691 c 40.489633,5.93585 71.494407,-4.56312 83.448437,1.57305 v 0 c -6.57755,7.90549 -31.23765,8.972 -74.915981,4.46568 C 34.7239,125.95826 25.180008,124.24741 0.52916539,129.72318 13.180178,125.45342 19.254006,119.77196 49.861083,122.91691 Z"
     style="opacity:1;fill:#4d4d4d;fill-opacity:1;stroke:#1a1a1a;stroke-width:0;stroke-linecap:round;stroke-linejoin:round;stroke-miterlimit:4;stroke-dasharray:none;stroke-dashoffset:0;stroke-opacity:1;paint-order:stroke markers fill;filter:url(#filter12150)"
     transform="matrix(0.96648032,0,0,1,2.9565889,-1.943354)" />
  <path
     style="opacity:1;fill:#cddc39;fill-opacity:1;stroke:#1a1a1a;stroke-width:0;stroke-linecap:round;stroke-linejoin:round;stroke-miterlimit:4;stroke-dasharray:none;stroke-dashoffset:0;stroke-opacity:1;paint-order:stroke markers fill"
     d="m 50.12348,118.32769 c 39.13244,5.93585 69.09794,-4.56312 80.65128,1.57305 v 0 c -6.35708,7.90549 -30.19059,8.972 -72.40483,4.46568 C 35.49369,121.36904 26.26971,119.65819 2.4451589,125.13396 14.67211,120.8642 20.54234,115.18274 50.12348,118.32769 Z"
     id="rect3115-8"
     inkscape:connector-curvature="0"
     sodipodi:nodetypes="cccccc" />
</svg>
