<?xml version="1.0" encoding="UTF-8" standalone="no"?>
<!-- Created with Inkscape (http://www.inkscape.org/) -->

<svg
   xmlns:dc="http://purl.org/dc/elements/1.1/"
   xmlns:cc="http://creativecommons.org/ns#"
   xmlns:rdf="http://www.w3.org/1999/02/22-rdf-syntax-ns#"
   xmlns:svg="http://www.w3.org/2000/svg"
   xmlns="http://www.w3.org/2000/svg"
   xmlns:sodipodi="http://sodipodi.sourceforge.net/DTD/sodipodi-0.dtd"
   xmlns:inkscape="http://www.inkscape.org/namespaces/inkscape"
   sodipodi:docname="prices.svg"
   inkscape:version="0.92.4 (5da689c313, 2019-01-14)"
   id="svg2020"
   version="1.1"
   viewBox="0 0 132.29167 132.29167"
   height="500"
   width="500"
   enable-background="new">
  <defs
     id="defs2014">
    <filter
       inkscape:collect="always"
       style="color-interpolation-filters:sRGB"
       id="filter12150"
       x="-0.031699906"
       width="1.0633998"
       y="-0.43831171"
       height="1.8766234">
      <feGaussianBlur
         inkscape:collect="always"
         stdDeviation="1.753802"
         id="feGaussianBlur12152" />
      <feBlend
         inkscape:collect="always"
         mode="screen"
         in2="BackgroundImage"
         id="feBlend12154" />
    </filter>
    <filter
       inkscape:collect="always"
       style="color-interpolation-filters:sRGB"
       id="filter13983"
       x="-0.050237749"
       width="1.1004755"
       y="-0.045953103"
       height="1.0919062">
      <feGaussianBlur
         inkscape:collect="always"
         stdDeviation="1.072083"
         id="feGaussianBlur13985" />
    </filter>
  </defs>
  <sodipodi:namedview
     id="base"
     pagecolor="#ffffff"
     bordercolor="#666666"
     borderopacity="1.0"
     inkscape:pageopacity="0.0"
     inkscape:pageshadow="2"
     inkscape:zoom="1.4"
     inkscape:cx="100.70615"
     inkscape:cy="289.74542"
     inkscape:document-units="px"
     inkscape:current-layer="svg2020"
     showgrid="false"
     units="px"
     inkscape:window-width="1920"
     inkscape:window-height="1001"
     inkscape:window-x="-9"
     inkscape:window-y="-9"
     inkscape:window-maximized="1" />
  <metadata
     id="metadata2017">
    <rdf:RDF>
      <cc:Work
         rdf:about="">
        <dc:format>image/svg+xml</dc:format>
        <dc:type
           rdf:resource="http://purl.org/dc/dcmitype/StillImage" />
        <dc:title />
      </cc:Work>
    </rdf:RDF>
  </metadata>
  <path
     sodipodi:nodetypes="cccccc"
     inkscape:connector-curvature="0"
     id="path11243"
     d="m 49.861083,122.91691 c 40.489633,5.93585 71.494407,-4.56312 83.448437,1.57305 v 0 c -6.57755,7.90549 -31.23765,8.972 -74.915981,4.46568 C 34.7239,125.95826 25.180008,124.24741 0.52916539,129.72318 13.180178,125.45342 19.254006,119.77196 49.861083,122.91691 Z"
     style="opacity:1;fill:#4d4d4d;fill-opacity:1;stroke:#1a1a1a;stroke-width:0;stroke-linecap:round;stroke-linejoin:round;stroke-miterlimit:4;stroke-dasharray:none;stroke-dashoffset:0;stroke-opacity:1;paint-order:stroke markers fill;filter:url(#filter12150)"
     transform="matrix(0.96648032,0,0,1,2.8809917,-1.5875001)" />
  <path
     style="opacity:1;fill:#cddc39;fill-opacity:1;stroke:#1a1a1a;stroke-width:0;stroke-linecap:round;stroke-linejoin:round;stroke-miterlimit:4;stroke-dasharray:none;stroke-dashoffset:0;stroke-opacity:1;paint-order:stroke markers fill"
     d="m 50.047888,118.68355 c 39.132433,5.93585 69.097922,-4.56312 80.651262,1.57305 v 0 c -6.35708,7.90549 -30.19058,8.972 -72.404812,4.46568 -22.87624,-2.99738 -32.100224,-4.70823 -55.9247767,0.76754 12.2269537,-4.26976 18.0971887,-9.95122 47.6783267,-6.80627 z"
     id="rect3115-8"
     inkscape:connector-curvature="0"
     sodipodi:nodetypes="cccccc" />
  <g
     inkscape:label="Layer 1"
     inkscape:groupmode="layer"
     id="layer1"
     transform="translate(0,-164.70831)" />
  <path
     style="opacity:1;fill:#4d4d4d;fill-opacity:1;stroke:#1a1a1a;stroke-width:0;stroke-linecap:round;stroke-linejoin:round;stroke-miterlimit:4;stroke-dasharray:none;stroke-dashoffset:0;stroke-opacity:1;paint-order:stroke markers fill;filter:url(#filter13983)"
     d="m 76.468744,74.273153 c -1.186,-0.09429 -1.608,-0.138967 -2.332,-0.238225 -3.072,-0.441696 -5.752,-1.280422 -8.561,-2.684923 -3.926,-1.965304 -7.192,-4.694892 -9.852,-8.218546 -1.325,-1.751899 -2.362,-3.53358 -3.35,-5.747026 l -0.476,-1.067019 -5.097,-0.02482 c -3.295,-0.0149 -5.107,-0.04467 -5.141,-0.07443 -0.03,-0.02482 -0.561,-1.42435 -1.187,-3.101808 -1.583,-4.248235 -1.89,-5.082001 -1.861,-5.121704 0.01,-0.02482 0.363,-0.03971 0.775,-0.03971 0.416,-0.0049 1.315,-0.02482 1.995,-0.0546 0.684,-0.02977 2.412,-0.06949 3.846,-0.08932 2,-0.02977 2.739,-0.05956 3.176,-0.124076 0.313,-0.04466 0.74,-0.09429 0.948,-0.109183 l 0.382,-0.02482 0.02,-0.22333 c 0.01,-0.148886 0.06,-0.27296 0.154,-0.362291 0.124,-0.133998 0.129,-0.138962 0.179,-1.344943 0.03,-0.669991 0.05,-1.409461 0.05,-1.642717 0,-0.401994 0,-0.431772 -0.109,-0.466512 -0.06,-0.01985 -1.975,-0.04964 -4.253,-0.06949 l -4.139,-0.02975 -0.908,-2.431816 c -1.281,-3.409507 -2.105,-5.667622 -2.105,-5.756955 0,-0.05956 0.06,-0.07444 0.288,-0.07941 0.154,0 0.918,-0.02482 1.698,-0.04964 0.779,-0.02977 3.315,-0.06949 5.632,-0.09429 2.368,-0.02481 4.348,-0.06452 4.517,-0.09429 0.164,-0.02977 0.561,-0.07445 0.883,-0.109183 0.566,-0.05956 0.586,-0.06452 0.67,-0.203478 0.04,-0.07941 0.154,-0.178665 0.243,-0.223331 0.189,-0.08932 0.199,-0.104211 0.799,-1.176204 1.554,-2.789145 2.933,-4.640303 4.998,-6.704866 1.28,-1.285389 2.397,-2.218412 3.856,-3.230841 3.489,-2.421891 7.578,-4.044758 11.802,-4.680008 1.667,-0.248143 2.094,-0.277921 4.392,-0.272958 2.07,0 2.238,0.01 3.266,0.13896 1.786,0.223332 3.255,0.51614 4.228,0.848654 0.377,0.129037 2.367,0.933025 2.928,1.18117 0.74,0.327549 0.769,0.342438 0.769,0.401994 0,0.02977 -1.667,1.722123 -3.707,3.761872 l -3.712,3.707272 -0.372,-0.07445 c -5.211,-1.027319 -10.512,0.158812 -14.681,3.290396 -0.312,0.233257 -0.774,0.625325 -1.027,0.863543 -0.382,0.367254 -0.461,0.471473 -0.491,0.630286 -0.02,0.143924 -0.144,0.327554 -0.497,0.75436 -0.476,0.570733 -0.615,0.774211 -0.565,0.82384 0.01,0.01488 0.392,0.04466 0.838,0.07444 1.048,0.05956 2.055,0.138961 2.527,0.198516 0.203,0.02481 1.265,0.06452 2.357,0.08932 2.824,0.06949 3.742,0.109182 3.792,0.173701 0.02,0.02977 0.143,0.322588 0.272,0.645175 0.13,0.327551 0.388,0.918136 0.576,1.315168 0.531,1.141463 0.755,1.751899 1.042,2.858624 0.09,0.327551 0.378,1.220871 0.641,1.985156 0.268,0.764285 0.476,1.404499 0.466,1.429314 -0.01,0.01985 -3.385,0.03473 -7.499,0.03971 -4.114,0 -7.801,0.01985 -8.189,0.0397 -0.704,0.02977 -0.714,0.03473 -0.813,0.168738 -0.06,0.07445 -0.139,0.133998 -0.189,0.133998 -0.04,0 -0.109,0.02977 -0.139,0.06452 -0.1,0.119111 -0.208,1.106724 -0.208,1.875974 0,0.729543 0.07,1.722123 0.124,1.77175 0.01,0.01487 0.387,0.04467 0.828,0.06949 0.447,0.02482 1.033,0.0794 1.306,0.124076 0.417,0.06949 1.206,0.08437 5.037,0.11911 4.303,0.03473 6.233,0.06949 6.581,0.124076 0.149,0.01984 0.169,0.0546 0.442,0.729547 0.158,0.387106 0.406,0.952875 0.55,1.250651 0.497,1.052129 0.745,1.712195 0.988,2.630329 0.159,0.595548 0.789,2.521148 1.087,3.320174 0.07,0.18859 0.119,0.357328 0.1,0.372216 -0.01,0.01487 -2.809,0.0397 -6.208,0.0546 -5.986,0.02482 -6.179,0.02977 -6.244,0.11911 -0.04,0.04964 -0.08,0.114146 -0.09,0.143923 0,0.02482 -0.253,0.06949 -0.546,0.09926 -0.367,0.03474 -0.531,0.06949 -0.531,0.114136 0,0.03474 0.194,0.327549 0.427,0.650139 1.161,1.588125 2.506,2.858625 4.238,4.010017 1.057,0.699765 1.573,0.982652 2.903,1.588125 0.72,0.332512 2.457,0.903245 3.251,1.067017 0.09,0.01987 0.333,0.07443 0.521,0.114138 0.953,0.208442 2.621,0.382141 3.708,0.382141 1.91,0 3.93,-0.317625 5.742,-0.903245 0.421,-0.133996 0.794,-0.25807 0.823,-0.267997 0.03,-0.0149 0.239,0.267997 0.487,0.665028 0.238,0.382143 0.605,0.928063 0.819,1.210945 0.719,0.957842 1.692,2.645225 2.094,3.622913 0.139,0.332515 0.511,1.081913 0.824,1.66257 0.317,0.585618 0.566,1.086874 0.551,1.121609 -0.02,0.06949 -1.246,0.605477 -2.03,0.898289 -2.472,0.918133 -5.092,1.473978 -7.832,1.667531 -0.65,0.04466 -3.007,0.05456 -3.498,0.01492 z"
     id="rect3115-0"
     inkscape:connector-curvature="0"
     sodipodi:nodetypes="cccccc" />
  <path
     sodipodi:nodetypes="cccccc"
     inkscape:connector-curvature="0"
     id="path9009"
     d="m 74.427674,71.967497 c -1.186,-0.09429 -1.608,-0.138967 -2.332,-0.238225 -3.072,-0.441696 -5.752,-1.280422 -8.561,-2.684923 -3.926,-1.965304 -7.192,-4.694892 -9.852,-8.218546 -1.325,-1.751899 -2.362,-3.53358 -3.35,-5.747026 l -0.476,-1.067019 -5.097,-0.02482 c -3.295,-0.0149 -5.107,-0.04467 -5.141,-0.07443 -0.03,-0.02482 -0.561,-1.42435 -1.187,-3.101808 -1.583,-4.248235 -1.89,-5.082001 -1.861,-5.121704 0.01,-0.02482 0.363,-0.03971 0.775,-0.03971 0.416,-0.0049 1.315,-0.02482 1.995,-0.0546 0.684,-0.02977 2.412,-0.06949 3.846,-0.08932 2,-0.02977 2.739,-0.05956 3.176,-0.124076 0.313,-0.04466 0.74,-0.09429 0.948,-0.109183 l 0.382,-0.02482 0.02,-0.22333 c 0.01,-0.148886 0.06,-0.27296 0.154,-0.362291 0.124,-0.133998 0.129,-0.138962 0.179,-1.344943 0.03,-0.669991 0.05,-1.409461 0.05,-1.642717 0,-0.401994 0,-0.431772 -0.109,-0.466512 -0.06,-0.01985 -1.975,-0.04964 -4.253,-0.06949 l -4.139,-0.02975 -0.908,-2.431816 c -1.281,-3.409507 -2.105,-5.667622 -2.105,-5.756955 0,-0.05956 0.06,-0.07444 0.288,-0.07941 0.154,0 0.918,-0.02482 1.698,-0.04964 0.779,-0.02977 3.315,-0.06949 5.632,-0.09429 2.368,-0.02481 4.348,-0.06452 4.517,-0.09429 0.164,-0.02977 0.561,-0.07445 0.883,-0.109183 0.566,-0.05956 0.586,-0.06452 0.67,-0.203478 0.04,-0.07941 0.154,-0.178665 0.243,-0.223331 0.189,-0.08932 0.199,-0.104211 0.799,-1.176204 1.554,-2.789145 2.933,-4.640303 4.998,-6.704866 1.28,-1.285389 2.397,-2.218412 3.856,-3.230841 3.489,-2.421891 7.578,-4.044758 11.802,-4.680008 1.667,-0.248143 2.094,-0.277921 4.392,-0.272958 2.07,0 2.238,0.01 3.266,0.13896 1.786,0.223332 3.255,0.51614 4.228,0.848654 0.377,0.129037 2.367,0.933025 2.928,1.18117 0.74,0.327549 0.769,0.342438 0.769,0.401994 0,0.02977 -1.667,1.722123 -3.707,3.761872 l -3.712,3.707272 -0.372,-0.07445 c -5.211,-1.027319 -10.512,0.158812 -14.681,3.290396 -0.312,0.233257 -0.774,0.625325 -1.027,0.863543 -0.382,0.367254 -0.461,0.471473 -0.491,0.630286 -0.02,0.143924 -0.144,0.327554 -0.497,0.75436 -0.476,0.570733 -0.615,0.774211 -0.565,0.82384 0.01,0.01488 0.392,0.04466 0.838,0.07444 1.048,0.05956 2.055,0.138961 2.527,0.198516 0.203,0.02481 1.265,0.06452 2.357,0.08932 2.824,0.06949 3.742,0.109182 3.792,0.173701 0.02,0.02977 0.143,0.322588 0.272,0.645175 0.13,0.327551 0.388,0.918136 0.576,1.315168 0.531,1.141463 0.755,1.751899 1.042,2.858624 0.09,0.327551 0.378,1.220871 0.641,1.985156 0.268,0.764285 0.476,1.404499 0.466,1.429314 -0.01,0.01985 -3.385,0.03473 -7.499,0.03971 -4.114,0 -7.801,0.01985 -8.189,0.0397 -0.704,0.02977 -0.714,0.03473 -0.813,0.168738 -0.06,0.07445 -0.139,0.133998 -0.189,0.133998 -0.04,0 -0.109,0.02977 -0.139,0.06452 -0.1,0.119111 -0.208,1.106724 -0.208,1.875974 0,0.729543 0.07,1.722123 0.124,1.77175 0.01,0.01487 0.387,0.04467 0.828,0.06949 0.447,0.02482 1.033,0.0794 1.306,0.124076 0.417,0.06949 1.206,0.08437 5.037,0.11911 4.303,0.03473 6.233,0.06949 6.581,0.124076 0.149,0.01984 0.169,0.0546 0.442,0.729547 0.158,0.387106 0.406,0.952875 0.55,1.250651 0.497,1.052129 0.745,1.712195 0.988,2.630329 0.159,0.595548 0.789,2.521148 1.087,3.320174 0.07,0.18859 0.119,0.357328 0.1,0.372216 -0.01,0.01487 -2.809,0.0397 -6.208,0.0546 -5.986,0.02482 -6.179,0.02977 -6.244,0.11911 -0.04,0.04964 -0.08,0.114146 -0.09,0.143923 0,0.02482 -0.253,0.06949 -0.546,0.09926 -0.367,0.03474 -0.531,0.06949 -0.531,0.114136 0,0.03474 0.194,0.327549 0.427,0.650139 1.161,1.588125 2.506,2.858625 4.238,4.010017 1.057,0.699765 1.573,0.982652 2.903,1.588125 0.72,0.332512 2.457,0.903245 3.251,1.067017 0.09,0.01987 0.333,0.07443 0.521,0.114138 0.953,0.208442 2.621,0.382141 3.708,0.382141 1.91,0 3.93,-0.317625 5.742,-0.903245 0.421,-0.133996 0.794,-0.25807 0.823,-0.267997 0.03,-0.0149 0.239,0.267997 0.487,0.665028 0.238,0.382143 0.605,0.928063 0.819,1.210945 0.719,0.957842 1.692,2.645225 2.094,3.622913 0.139,0.332515 0.511,1.081913 0.824,1.66257 0.317,0.585618 0.566,1.086874 0.551,1.121609 -0.02,0.06949 -1.246,0.605477 -2.03,0.898289 -2.472,0.918133 -5.092,1.473978 -7.832,1.667531 -0.65,0.04466 -3.007,0.05456 -3.498,0.01492 z"
     style="opacity:1;fill:#cddc39;fill-opacity:1;stroke:#1a1a1a;stroke-width:0;stroke-linecap:round;stroke-linejoin:round;stroke-miterlimit:4;stroke-dasharray:none;stroke-dashoffset:0;stroke-opacity:1;paint-order:stroke markers fill" />
</svg>
