<?xml version="1.0" encoding="UTF-8" standalone="no"?>
<svg
   xmlns:dc="http://purl.org/dc/elements/1.1/"
   xmlns:cc="http://creativecommons.org/ns#"
   xmlns:rdf="http://www.w3.org/1999/02/22-rdf-syntax-ns#"
   xmlns:svg="http://www.w3.org/2000/svg"
   xmlns="http://www.w3.org/2000/svg"
   xmlns:sodipodi="http://sodipodi.sourceforge.net/DTD/sodipodi-0.dtd"
   xmlns:inkscape="http://www.inkscape.org/namespaces/inkscape"
   version="1.1"
   id="Layer_1"
   x="0px"
   y="0px"
   viewBox="0 0 508 508"
   style="enable-background:new 0 0 508 508;"
   xml:space="preserve"
   sodipodi:docname="profile.svg"
   inkscape:version="0.92.4 (5da689c313, 2019-01-14)"><metadata
   id="metadata63"><rdf:RDF><cc:Work
       rdf:about=""><dc:format>image/svg+xml</dc:format><dc:type
         rdf:resource="http://purl.org/dc/dcmitype/StillImage" /></cc:Work></rdf:RDF></metadata><defs
   id="defs61" /><sodipodi:namedview
   pagecolor="#ffffff"
   bordercolor="#666666"
   borderopacity="1"
   objecttolerance="10"
   gridtolerance="10"
   guidetolerance="10"
   inkscape:pageopacity="0"
   inkscape:pageshadow="2"
   inkscape:window-width="1432"
   inkscape:window-height="758"
   id="namedview59"
   showgrid="false"
   inkscape:zoom="0.46456693"
   inkscape:cx="254"
   inkscape:cy="223.55845"
   inkscape:window-x="2642"
   inkscape:window-y="279"
   inkscape:window-maximized="0"
   inkscape:current-layer="Layer_1" />

<rect
   style="opacity:1;fill:#ffffff;fill-opacity:1;stroke:#f2f2f2;stroke-width:0;stroke-linecap:round;stroke-miterlimit:0;stroke-dasharray:none;stroke-opacity:0;paint-order:stroke fill markers"
   id="rect870"
   width="510.022"
   height="510.52185"
   x="-1.0221859"
   y="-1.3915036"
   ry="2.8699639" /><g
   id="g8"
   style="fill:#999999">
	<path
   style="fill:#999999"
   d="m 255.2,363.2 c -0.4,0 -0.8,0.4 -1.6,0.4 -0.4,0 -0.8,-0.4 -1.6,-0.4 z"
   id="path4"
   inkscape:connector-curvature="0" />
	<path
   style="fill:#999999"
   d="m 458.4,404 c -46,62.8 -120.8,104 -204.8,104 -84,0 -158.4,-40.8 -204.8,-104 36,-38.4 84.8,-58.8 125.6,-69.2 -3.6,29.2 11.6,68.4 12,67.2 15.2,-35.2 66.8,-38.4 66.8,-38.4 0,0 51.6,2.8 67.2,38.4 0.4,0.8 15.6,-38 12,-67.2 41.2,10.4 90,30.8 126,69.2 z"
   id="path6"
   inkscape:connector-curvature="0" />
</g>
<path
   style="fill:#FFD05B;"
   d="M316.8,308L316.8,308c0,5.2-3.2,32.8-61.6,55.2H252c-58.4-22.4-61.6-50-61.6-55.2l0,0  c0.4-10.4,2.8-20.8,7.2-30.4c16,18,35.2,30,56,30c20.4,0,40-11.6,56-30C314,287.2,316.8,297.6,316.8,308z"
   id="path10" />
<path
   style="fill:#F1543F;"
   d="M288.4,372.4L275.6,398h-44l-12.8-25.6c17.6-7.6,34.8-8.8,34.8-8.8S271.2,364.8,288.4,372.4z"
   id="path12" />
<path
   style="fill:#FF7058;"
   d="M218,505.6c11.6,1.6,23.6,2.4,36,2.4c12,0,24-0.8,36-2.4l-14-107.2h-44L218,505.6z"
   id="path14" />
<g
   id="g20"
   style="fill:#e6e6e6">
	<path
   style="fill:#e6e6e6"
   d="m 316.8,307.2 c 0,0 2.8,32 -63.2,56.4 0,0 51.6,2.8 67.2,38.4 0.4,1.6 30.4,-76 -4,-94.8 z"
   id="path16"
   inkscape:connector-curvature="0" />
	<path
   style="fill:#e6e6e6"
   d="m 190.4,307.2 c -34,18.8 -4.4,96 -3.6,94.8 C 202,366.8 254,363.6 254,363.6 187.6,339.2 190.4,307.2 190.4,307.2 Z"
   id="path18"
   inkscape:connector-curvature="0" />
</g>
<path
   style="fill:#F9B54C;"
   d="M312.8,285.6c-16.8,18-36.8,29.6-59.2,29.6s-42.4-11.6-59.2-29.6c0.8-2.8,2-5.6,3.2-8  c16,18,35.2,30,56,30s40-11.6,56-30C310.8,280,312,282.8,312.8,285.6z"
   id="path22" />
<path
   style="fill:#FFD05B;"
   d="M362.8,224.4c-8.4,14-21.2,22.4-30.8,20.8c-19.2,35.6-47.2,62-78.4,62s-59.2-26.8-78.4-62  c-9.6,1.2-22.4-6.8-30.8-20.8c-10-16.4-10.4-34.4-0.8-40.4c2.4-1.2,4.8-2,7.6-1.6c6.4,16.4,15.2,26.4,15.2,26.4  c-9.2-50.8,28.4-56.4,22-105.2c0,0,23.6,52.4,91.2,15.6l-5.2,10c94.4-21.2,62.8,90,62,92.8c10.8-13.6,17.6-27.2,21.6-39.6  c1.6,0,3.6,0.8,4.8,1.6C373.2,189.6,372.8,208,362.8,224.4z"
   id="path24" />
<path
   style="fill:#324A5E;"
   d="M308,50.8c7.6-0.8,20,6,20,6c-34-38.8-89.6-14-89.6-14c18.8-16,35.6-14.4,35.6-14.4  c-79.6-12-93.2,35.6-93.2,35.6c-3.6-5.6-3.6-13.6-3.2-17.6C172,56,178,75.2,178,75.2c-5.6-14-25.2-11.6-25.2-11.6  c16.8,2.8,19.6,13.2,19.6,13.2c-42,15.6-34.8,59.2-34.8,59.2l10-12c-12.4,47.6,19.2,84.4,19.2,84.4c-9.2-50.8,28.4-56.4,22-105.2  c0,0,23.6,52.4,91.2,15.6l-5.2,10c95.6-21.6,62,93.2,62,93.2c34-43.2,28.8-87.6,28.8-87.6l4,16C380.4,78.4,308,50.8,308,50.8z"
   id="path26" />
<g
   id="g28">
</g>
<g
   id="g30">
</g>
<g
   id="g32">
</g>
<g
   id="g34">
</g>
<g
   id="g36">
</g>
<g
   id="g38">
</g>
<g
   id="g40">
</g>
<g
   id="g42">
</g>
<g
   id="g44">
</g>
<g
   id="g46">
</g>
<g
   id="g48">
</g>
<g
   id="g50">
</g>
<g
   id="g52">
</g>
<g
   id="g54">
</g>
<g
   id="g56">
</g>
</svg>