<?xml version='1.0' encoding='UTF-8' standalone='no'?>
<!DOCTYPE svg PUBLIC '-//W3C//DTD SVG 1.1//EN' 'http://www.w3.org/Graphics/SVG/1.1/DTD/svg11.dtd'>
<!-- Animated using aniGen version 0.8.1 Quality of Life - http://anigen.org -->
<svg xmlns:dc="http://purl.org/dc/elements/1.1/" xmlns:cc="http://creativecommons.org/ns#" xmlns:rdf="http://www.w3.org/1999/02/22-rdf-syntax-ns#" xmlns:svg="http://www.w3.org/2000/svg" xmlns="http://www.w3.org/2000/svg" xmlns:sodipodi="http://sodipodi.sourceforge.net/DTD/sodipodi-0.dtd" xmlns:inkscape="http://www.inkscape.org/namespaces/inkscape" width="800mm" height="800mm" viewBox="0 0 211.66666 211.66667" version="1.1" id="svg3127" sodipodi:docname="offline.svg" inkscape:version="0.92.4 (5da689c313, 2019-01-14)" preserveAspectRatio="xMidYMid" xmlns:xlink="http://www.w3.org/1999/xlink" xmlns:anigen="http://www.anigen.org/namespace" anigen:version="0.8.1">
  <defs id="defs3121"></defs>
  <sodipodi:namedview id="base" pagecolor="#ffffff" bordercolor="#666666" borderopacity="1.0" inkscape:pageopacity="0.0" inkscape:pageshadow="2" inkscape:zoom="2.0000000000000004" inkscape:cx="140.6388186004827" inkscape:cy="-73.0624401782438" inkscape:document-units="mm" inkscape:current-layer="layer1" showgrid="false" units="px" inkscape:window-width="2100" inkscape:window-height="1234" inkscape:window-x="2391" inkscape:window-y="-9" inkscape:window-maximized="1"></sodipodi:namedview>
  <metadata id="metadata3124">
    <rdf:rdf id="rdf:rdf4991">
      <cc:work rdf:about="" id="cc:work276">
        <dc:format id="dc:format4559">image/svg+xml</dc:format>
        <dc:type rdf:resource="http://purl.org/dc/dcmitype/StillImage" id="dc:type4366"></dc:type>
        <dc:title id="dc:title8647"></dc:title>
      </cc:work>
    </rdf:rdf>
  </metadata>
  <g inkscape:label="Layer 1" inkscape:groupmode="layer" id="layer1" transform="translate(0,-85.333317)">
    <rect y="122.61051" x="67.311111" height="118.58884" width="80.748199" id="rect8021" style="opacity:1;fill:#333333;fill-opacity:1;stroke:#ffffff;stroke-width:0;stroke-linecap:round;stroke-linejoin:round;stroke-miterlimit:4;stroke-dasharray:none;stroke-dashoffset:0;stroke-opacity:1;paint-order:stroke markers fill"></rect>
    <g id="g6053" transform="matrix(-6.4356579,0,0,6.6897306,195.99209,100.04605)" style="fill:#666666;fill-opacity:1;stroke:#cddc23;stroke-width:0;stroke-miterlimit:4;stroke-dasharray:none;stroke-opacity:1">
      <path d="M 19.494,0 H 7.948 C 6.843,0 5.951,0.896 5.951,1.999 v 23.446 c 0,1.102 0.892,1.997 1.997,1.997 h 11.546 c 1.103,0 1.997,-0.895 1.997,-1.997 V 1.999 C 21.491,0.896 20.597,0 19.494,0 Z m -8.622,1.214 h 5.7 c 0.144,0 0.261,0.215 0.261,0.481 0,0.266 -0.117,0.482 -0.261,0.482 h -5.7 c -0.145,0 -0.26,-0.216 -0.26,-0.482 0,-0.266 0.115,-0.481 0.26,-0.481 z m 2.85,24.255 c -0.703,0 -1.275,-0.572 -1.275,-1.276 0,-0.704 0.572,-1.274 1.275,-1.274 0.701,0 1.273,0.57 1.273,1.274 0,0.704 -0.572,1.276 -1.273,1.276 z M 19.995,21.1 H 7.448 V 3.373 h 12.547 z" id="path6021" inkscape:connector-curvature="0" style="fill:#666666;fill-opacity:1;stroke:#cddc23;stroke-width:0;stroke-miterlimit:4;stroke-dasharray:none;stroke-opacity:1"></path>
      <g id="g6023" style="fill:#666666;fill-opacity:1;stroke:#cddc23;stroke-width:0;stroke-miterlimit:4;stroke-dasharray:none;stroke-opacity:1"></g>
      <g id="g6025" style="fill:#666666;fill-opacity:1;stroke:#cddc23;stroke-width:0;stroke-miterlimit:4;stroke-dasharray:none;stroke-opacity:1"></g>
      <g id="g6027" style="fill:#666666;fill-opacity:1;stroke:#cddc23;stroke-width:0;stroke-miterlimit:4;stroke-dasharray:none;stroke-opacity:1"></g>
      <g id="g6029" style="fill:#666666;fill-opacity:1;stroke:#cddc23;stroke-width:0;stroke-miterlimit:4;stroke-dasharray:none;stroke-opacity:1"></g>
      <g id="g6031" style="fill:#666666;fill-opacity:1;stroke:#cddc23;stroke-width:0;stroke-miterlimit:4;stroke-dasharray:none;stroke-opacity:1"></g>
      <g id="g6033" style="fill:#666666;fill-opacity:1;stroke:#cddc23;stroke-width:0;stroke-miterlimit:4;stroke-dasharray:none;stroke-opacity:1"></g>
      <g id="g6035" style="fill:#666666;fill-opacity:1;stroke:#cddc23;stroke-width:0;stroke-miterlimit:4;stroke-dasharray:none;stroke-opacity:1"></g>
      <g id="g6037" style="fill:#666666;fill-opacity:1;stroke:#cddc23;stroke-width:0;stroke-miterlimit:4;stroke-dasharray:none;stroke-opacity:1"></g>
      <g id="g6039" style="fill:#666666;fill-opacity:1;stroke:#cddc23;stroke-width:0;stroke-miterlimit:4;stroke-dasharray:none;stroke-opacity:1"></g>
      <g id="g6041" style="fill:#666666;fill-opacity:1;stroke:#cddc23;stroke-width:0;stroke-miterlimit:4;stroke-dasharray:none;stroke-opacity:1"></g>
      <g id="g6043" style="fill:#666666;fill-opacity:1;stroke:#cddc23;stroke-width:0;stroke-miterlimit:4;stroke-dasharray:none;stroke-opacity:1"></g>
      <g id="g6045" style="fill:#666666;fill-opacity:1;stroke:#cddc23;stroke-width:0;stroke-miterlimit:4;stroke-dasharray:none;stroke-opacity:1"></g>
      <g id="g6047" style="fill:#666666;fill-opacity:1;stroke:#cddc23;stroke-width:0;stroke-miterlimit:4;stroke-dasharray:none;stroke-opacity:1"></g>
      <g id="g6049" style="fill:#666666;fill-opacity:1;stroke:#cddc23;stroke-width:0;stroke-miterlimit:4;stroke-dasharray:none;stroke-opacity:1"></g>
      <g id="g6051" style="fill:#666666;fill-opacity:1;stroke:#cddc23;stroke-width:0;stroke-miterlimit:4;stroke-dasharray:none;stroke-opacity:1"></g>
    </g>
    <path style="opacity:0.2;fill:#cddc23;fill-opacity:1;stroke:#ffffff;stroke-width:0;stroke-linecap:round;stroke-linejoin:round;stroke-miterlimit:4;stroke-dasharray:none;stroke-dashoffset:0;stroke-opacity:1;paint-order:stroke markers fill" d="m 67.252895,122.33117 c 0.267408,2.98295 -0.551082,8.93947 0.43692,9.94918 26.699743,0 53.399485,0 80.099225,0 -0.26741,-2.98295 0.55108,-8.93946 -0.43692,-9.94918 -26.69975,0 -53.399483,0 -80.099225,0 z m 28.650435,18.76035 c -0.590947,5.3593 0.921582,4.95857 2.403063,4.64287 5.523427,0 11.046847,0 16.570287,0 0.59095,-5.35931 -0.92158,-4.95858 -2.40307,-4.64287 -5.52342,0 -11.04685,0 -16.57028,0 z m -7.670304,9.83811 c -0.569127,5.18248 1.762512,2.42168 2.839977,3.09524 10.491237,0 20.982467,0 31.473707,0 0.56911,-5.1825 -1.76251,-2.42168 -2.83999,-3.09524 -10.49123,0 -20.982461,0 -31.473694,0 z m 4.390245,8.29125 c -0.569121,5.18248 1.762512,2.42169 2.839982,3.09523 7.564497,0 15.128997,0 22.693477,0 0.56913,-5.18248 -1.76251,-2.42166 -2.83998,-3.09523 -7.56448,0 -15.12899,0 -22.693479,0 z M 71.48005,171.15901 c 0,12.6205 0,25.241 0,37.8615 24.221369,0 48.44274,0 72.66411,0 0,-12.6205 0,-25.241 0,-37.8615 -24.22137,0 -48.442741,0 -72.66411,0 z m -0.151505,45.65477 c -0.590941,5.35931 0.921582,4.95857 2.403063,4.64285 2.630355,0 5.260716,0 7.891071,0 0.590946,-5.35929 -0.921582,-4.95855 -2.403058,-4.64285 -2.63036,0 -5.260715,0 -7.891076,0 z m 0,10.28094 c -0.56912,5.18249 1.762517,2.42168 2.839984,3.09524 15.4701,0 30.940211,0 46.410311,0 0.56911,-5.18248 -1.76252,-2.42168 -2.83998,-3.09524 -15.4701,0 -30.940209,0 -46.410315,0 z m 0,9.50713 c -0.56912,5.1825 1.762517,2.42168 2.839984,3.09523 23.241135,0 46.482271,0 69.723401,0 0.56912,-5.18248 -1.76251,-2.42167 -2.83999,-3.09523 -23.24112,0 -46.48226,0 -69.723395,0 z" id="rect14783" inkscape:connector-curvature="0"><animate attributeType="auto" attributeName="opacity" values="0.2;0.2;0;0;0.2" calcMode="spline" keyTimes="0;0.4;0.5;0.9;1" keySplines="0 0 1 1;0 0 1 1;0 0 1 1;0 0 1 1" dur="10s" begin="0s" repeatCount="indefinite" additive="replace" accumulate="none" fill="freeze" id="animate1770"></animate></path>
    <g id="g15324">
      <g transform="matrix(0.30779286,0,0,0.30779286,100.28674,58.836662)" id="g15315">
        <path style="opacity:1;fill:#cccccc;fill-opacity:1;stroke:#c87137;stroke-width:0;stroke-linecap:round;stroke-linejoin:round;stroke-miterlimit:4;stroke-dasharray:none;stroke-dashoffset:0;stroke-opacity:1;paint-order:stroke markers fill" d="m 202.86719,133.19777 10.93434,14.18988 c 37.44273,-28.60069 71.0455,-25.12751 100.49699,13.02219 l 14.18987,-10.93435 C 291.67406,101.78842 249.67053,97.446862 202.86719,133.19777 Z m 16.40152,21.28484 10.93435,14.18989 c 23.40172,-17.87541 44.40343,-15.70468 62.81061,8.13886 l 14.18989,-10.93435 c -25.77006,-33.38099 -55.1725,-36.42007 -87.93485,-11.3944 z m 16.40153,21.28485 21.8687,28.37978 28.37978,-21.86871 c -14.7256,-19.07495 -31.52719,-20.81155 -50.24848,-6.51107 z" id="rect15176-5" inkscape:connector-curvature="0"></path>
        <path style="fill:#fdd835;fill-opacity:1;stroke:#fdd835;stroke-width:21.16666603;stroke-linecap:butt;stroke-linejoin:miter;stroke-miterlimit:4;stroke-dasharray:none;stroke-opacity:1" d="M 339.72395,103.92004 202.74743,207.39144" id="path7994" inkscape:connector-curvature="0" sodipodi:nodetypes="cc"></path>
      </g>
    <animate attributeType="auto" attributeName="opacity" values="1;0;1;1" calcMode="spline" keyTimes="0;0.1;0.2;1" keySplines=".25 0 .75 1;.25 0 .75 1;.25 0 .75 1" dur="10s" begin="0s" repeatCount="indefinite" additive="replace" accumulate="none" fill="freeze" id="animate4087"></animate></g>
    <path style="opacity:0.2;fill:#fdd835;fill-opacity:1;stroke:#ffffff;stroke-width:0;stroke-linecap:round;stroke-linejoin:round;stroke-miterlimit:4;stroke-dasharray:none;stroke-dashoffset:0;stroke-opacity:1;paint-order:stroke markers fill" d="m 67.331629,122.3309 c 0.134189,2.98294 -0.276311,8.93955 0.219473,9.94926 h 40.194198 40.19419 c -0.13418,-2.98295 0.27694,-8.93954 -0.21885,-9.94926 H 107.52583 Z M 90.5674,140.92976 c -0.171068,-0.002 -0.357872,0.0828 -0.543727,0.16175 h -8.31523 c -0.296541,5.3593 0.462454,4.95831 1.20587,4.64261 h 8.315229 c 0.222408,-4.01948 -0.148943,-4.79903 -0.662142,-4.80436 z m 40.1942,0 c -0.17107,-0.002 -0.35788,0.0828 -0.54373,0.16175 h -8.31462 c -0.29653,5.3593 0.46247,4.95831 1.20588,4.64261 h 8.31461 c 0.22241,-4.01948 -0.14894,-4.79903 -0.66214,-4.80436 z m -36.085566,9.85625 c -0.324393,-0.0418 -0.752631,0.48044 -1.022973,0.14366 H 77.85958 c -0.285589,5.18248 0.884664,2.42134 1.425346,3.0949 h 15.793478 c 0.142792,-2.59125 -0.07797,-3.19676 -0.40237,-3.23856 z m 40.194206,0 c -0.32441,-0.0418 -0.75201,0.48044 -1.02237,0.14366 h -15.7941 c -0.28558,5.18248 0.88468,2.42134 1.42535,3.0949 h 15.79348 c 0.1428,-2.59125 -0.078,-3.19676 -0.40236,-3.23856 z m -42.397629,8.29148 c -0.324395,-0.0418 -0.752015,0.47993 -1.022355,0.14315 h -11.38787 c -0.28559,5.18248 0.884661,2.42187 1.425342,3.09541 h 11.387871 c 0.142798,-2.59124 -0.07859,-3.19676 -0.402988,-3.23856 z m 40.194809,0 c -0.32439,-0.0418 -0.752,0.47993 -1.02234,0.14315 h -11.38789 c -0.28558,5.18248 0.88405,2.42187 1.42474,3.09541 h 11.38786 c 0.1428,-2.59124 -0.078,-3.19676 -0.40237,-3.23856 z m -63.214824,12.08144 v 37.86125 h 36.463754 v -37.86125 z m 40.194824,0 v 37.86125 h 36.46314 v -37.86125 z m -35.766897,45.49334 c -0.171067,-0.002 -0.357873,0.0823 -0.543725,0.16123 h -3.95984 c -0.296538,5.35931 0.462451,4.95885 1.20587,4.64313 h 3.95984 c 0.222402,-4.01947 -0.148948,-4.79904 -0.662145,-4.80436 z m 40.194197,0 c -0.17108,-0.002 -0.35787,0.0823 -0.54371,0.16123 h -3.95985 c -0.29654,5.35931 0.46244,4.95885 1.20586,4.64313 h 3.95983 c 0.22242,-4.01947 -0.14894,-4.79904 -0.66213,-4.80436 z m -20.386321,10.29912 c -0.324393,-0.0418 -0.752015,0.47992 -1.022353,0.14314 H 69.376958 c -0.28559,5.18249 0.884041,2.42186 1.424723,3.09542 h 23.289088 c 0.142792,-2.59124 -0.07797,-3.19676 -0.40237,-3.23856 z m 40.194201,0 c -0.3244,-0.0418 -0.75202,0.47992 -1.02235,0.14314 h -23.28909 c -0.28559,5.18249 0.88466,2.42186 1.42535,3.09542 h 23.28908 c 0.14278,-2.59124 -0.0786,-3.19676 -0.40299,-3.23856 z m -28.49571,9.50691 c -0.3244,-0.0418 -0.75202,0.47992 -1.02236,0.14314 H 69.376958 c -0.28559,5.1825 0.884041,2.42187 1.424723,3.09542 h 34.988189 c 0.14279,-2.59124 -0.0786,-3.19676 -0.40298,-3.23856 z m 40.1942,0 c -0.32441,-0.0418 -0.75202,0.47992 -1.02237,0.14314 h -34.98756 c -0.28559,5.1825 0.88466,2.42187 1.42535,3.09542 h 34.98756 c 0.14279,-2.59124 -0.0786,-3.19676 -0.40298,-3.23856 z" id="path15341" inkscape:connector-curvature="0"><animate attributeType="auto" attributeName="opacity" values="0;0;0.2;0.2;0" calcMode="spline" keyTimes="0;0.4;0.5;0.9;1" keySplines="0 0 1 1;0 0 1 1;0 0 1 1;0 0 1 1" dur="10s" begin="0s" repeatCount="indefinite" additive="replace" accumulate="none" fill="freeze" id="animate480"></animate></path>
  </g>
</svg>