<?xml version='1.0' encoding='UTF-8' standalone='no'?>
<!DOCTYPE svg PUBLIC '-//W3C//DTD SVG 1.1//EN' 'http://www.w3.org/Graphics/SVG/1.1/DTD/svg11.dtd'>
<!-- Animated using aniGen version 0.8.1 Quality of Life - http://anigen.org -->
<svg xmlns:dc="http://purl.org/dc/elements/1.1/" xmlns:cc="http://creativecommons.org/ns#" xmlns:rdf="http://www.w3.org/1999/02/22-rdf-syntax-ns#" xmlns:svg="http://www.w3.org/2000/svg" xmlns="http://www.w3.org/2000/svg" xmlns:xlink="http://www.w3.org/1999/xlink" xmlns:sodipodi="http://sodipodi.sourceforge.net/DTD/sodipodi-0.dtd" xmlns:inkscape="http://www.inkscape.org/namespaces/inkscape" width="800mm" height="800mm" viewBox="0 0 211.66666 211.66667" version="1.1" id="svg3127" sodipodi:docname="security.svg" inkscape:version="0.92.4 (5da689c313, 2019-01-14)" preserveAspectRatio="xMidYMid" xmlns:anigen="http://www.anigen.org/namespace" anigen:version="0.8.1">
  <defs id="defs3121">
    <linearGradient inkscape:collect="always" id="linearGradient16712">
      <stop style="stop-color:#fdd823;stop-opacity:1;" offset="0" id="stop16708"></stop>
      <stop style="stop-color:#fdd823;stop-opacity:0;" offset="1" id="stop16710"></stop>
    </linearGradient>
    <radialGradient inkscape:collect="always" xlink:href="#linearGradient16712" id="radialGradient16716" cx="161.05565" cy="254.81783" fx="161.05565" fy="254.81783" r="23.084109" gradientTransform="matrix(0.95078813,-0.03636626,0.03844048,1.0050181,-1.8694402,4.5783375)" gradientUnits="userSpaceOnUse"></radialGradient>
  </defs>
  <sodipodi:namedview id="base" pagecolor="#ffffff" bordercolor="#666666" borderopacity="1.0" inkscape:pageopacity="0.0" inkscape:pageshadow="2" inkscape:zoom="4.000000000000001" inkscape:cx="207.40642712474613" inkscape:cy="-123.81232609406729" inkscape:document-units="mm" inkscape:current-layer="layer1" showgrid="false" units="px" inkscape:window-width="2100" inkscape:window-height="1234" inkscape:window-x="2391" inkscape:window-y="-9" inkscape:window-maximized="1"></sodipodi:namedview>
  <metadata id="metadata3124">
    <rdf:rdf id="rdf:rdf3027">
      <cc:work rdf:about="" id="cc:work7581">
        <dc:format id="dc:format107">image/svg+xml</dc:format>
        <dc:type rdf:resource="http://purl.org/dc/dcmitype/StillImage" id="dc:type1750"></dc:type>
        <dc:title id="dc:title5047"></dc:title>
      </cc:work>
    </rdf:rdf>
  </metadata>
  <g inkscape:label="Layer 1" inkscape:groupmode="layer" id="layer1" transform="translate(0,-85.333317)">
    <path style="opacity:1;fill:#333333;fill-opacity:1;stroke:#cddc23;stroke-width:0;stroke-linecap:round;stroke-linejoin:round;stroke-miterlimit:4;stroke-dasharray:none;stroke-dashoffset:0;stroke-opacity:1;paint-order:stroke markers fill" d="m 16.286402,119.44717 c -2.74999,0 -4.96383,2.21384 -4.96383,4.96383 v 96.14255 c 0,2.75 2.21384,4.96383 4.96383,4.96383 h 61.74259 c -0.0633,3.19593 -0.82282,5.4956 -2.32626,9.2414 h -17.13798 c -1.84137,0 -3.32382,1.50858 -3.32382,3.38254 v 3.45612 c 0,1.87395 1.48245,1.72433 3.32382,1.72433 h 68.277798 c 1.84138,0 3.22436,0.21542 3.25892,-1.65819 l 0.0653,-3.52226 c 0.0347,-1.87362 -1.48244,-3.38254 -3.32383,-3.38254 h -17.13756 c -1.29074,-3.10346 -1.86029,-6.13776 -1.93394,-9.2414 h 61.35026 c 2.75,0 4.96384,-2.21383 4.96384,-4.96383 V 124.411 c 0,-2.74999 -2.21384,-4.96383 -4.96384,-4.96383 z m 1.20675,5.74766 H 168.26224 v 86.21489 H 17.493152 Z m 5.61289,90.12865 a 2.19456,2.19456 0 0 1 4.2e-4,0 2.19456,2.19456 0 0 1 1.68217,0.71438 2.19456,2.19456 0 0 1 -0.12195,3.08239 2.19456,2.19456 0 0 1 -3.08405,-0.0852 2.19456,2.19456 0 0 1 0.0488,-3.08487 l 1.53624,1.56682 -1.46017,-1.63793 a 2.19456,2.19456 0 0 1 1.39857,-0.55563 z m 8.35959,0 a 2.19456,2.19456 0 0 1 1.68217,0.71438 2.19456,2.19456 0 0 1 -0.12195,3.08239 2.19456,2.19456 0 0 1 -3.08364,-0.0852 2.19456,2.19456 0 0 1 0.0484,-3.08487 l 1.53665,1.56682 -1.46017,-1.63793 a 2.19456,2.19456 0 0 1 1.39857,-0.55563 z m 8.35918,0 a 2.19456,2.19456 0 0 1 4.3e-4,0 2.19456,2.19456 0 0 1 1.68217,0.71438 2.19456,2.19456 0 0 1 -0.12237,3.08239 2.19456,2.19456 0 0 1 -3.08364,-0.0852 2.19456,2.19456 0 0 1 0.0488,-3.08487 l 1.53624,1.56682 -1.46017,-1.63793 a 2.19456,2.19456 0 0 1 1.39857,-0.55563 z" id="rect3683" inkscape:connector-curvature="0"></path>
    <rect style="opacity:1;fill:#1a1a1a;fill-opacity:1;stroke:#ffffff;stroke-width:0;stroke-linecap:round;stroke-linejoin:round;stroke-miterlimit:4;stroke-dasharray:none;stroke-dashoffset:0;stroke-opacity:1;paint-order:stroke markers fill" id="rect8015" width="150.76909" height="86.21489" x="17.493153" y="125.19482"></rect>
    <rect style="opacity:0.51000001;fill:#cddc23;fill-opacity:1;stroke:#ffffff;stroke-width:0;stroke-linecap:round;stroke-linejoin:round;stroke-miterlimit:4;stroke-dasharray:none;stroke-dashoffset:0;stroke-opacity:1;paint-order:stroke markers fill" id="rect14783" width="150.8125" height="6.8035712" x="17.493153" y="125.19483" ry="0"></rect>
    <rect style="opacity:0.13500001;fill:#cddc23;fill-opacity:1;stroke:#ffffff;stroke-width:0;stroke-linecap:round;stroke-linejoin:round;stroke-miterlimit:4;stroke-dasharray:none;stroke-dashoffset:0;stroke-opacity:1;paint-order:stroke markers fill" id="rect14783-0" width="35.529762" height="3.174999" x="71.143845" y="138.02379" ry="0"></rect>
    <rect style="opacity:0.13500001;fill:#cddc23;fill-opacity:1;stroke:#ffffff;stroke-width:0;stroke-linecap:round;stroke-linejoin:round;stroke-miterlimit:4;stroke-dasharray:none;stroke-dashoffset:0;stroke-opacity:1;paint-order:stroke markers fill" id="rect14783-0-6" width="64.255951" height="2.1166656" x="56.780743" y="144.75175" ry="0"></rect>
    <rect style="opacity:0.13500001;fill:#cddc23;fill-opacity:1;stroke:#ffffff;stroke-width:0;stroke-linecap:round;stroke-linejoin:round;stroke-miterlimit:4;stroke-dasharray:none;stroke-dashoffset:0;stroke-opacity:1;paint-order:stroke markers fill" id="rect14783-0-5" width="47.813988" height="2.1166656" x="65.001732" y="150.42139" ry="0"></rect>
    <rect style="opacity:0.13500001;fill:#cddc23;fill-opacity:1;stroke:#ffffff;stroke-width:0;stroke-linecap:round;stroke-linejoin:round;stroke-miterlimit:4;stroke-dasharray:none;stroke-dashoffset:0;stroke-opacity:1;paint-order:stroke markers fill" id="rect14783-0-5-5" width="136.07143" height="25.891365" x="25.408728" y="158.58566" ry="0"></rect>
    <rect style="opacity:0.13500001;fill:#cddc23;fill-opacity:1;stroke:#ffffff;stroke-width:0;stroke-linecap:round;stroke-linejoin:round;stroke-miterlimit:4;stroke-dasharray:none;stroke-dashoffset:0;stroke-opacity:1;paint-order:stroke markers fill" id="rect14783-0-8" width="19.276787" height="3.174999" x="25.125246" y="189.8065" ry="0"></rect>
    <rect ry="0" y="196.83685" x="25.125246" height="2.1166658" width="92.226189" id="rect14860" style="opacity:0.13500001;fill:#cddc23;fill-opacity:1;stroke:#ffffff;stroke-width:0;stroke-linecap:round;stroke-linejoin:round;stroke-miterlimit:4;stroke-dasharray:none;stroke-dashoffset:0;stroke-opacity:1;paint-order:stroke markers fill"></rect>
    <rect ry="0" y="203.33804" x="25.125246" height="2.1166658" width="135.88243" id="rect14860-5" style="opacity:0.13500001;fill:#cddc23;fill-opacity:1;stroke:#ffffff;stroke-width:0;stroke-linecap:round;stroke-linejoin:round;stroke-miterlimit:4;stroke-dasharray:none;stroke-dashoffset:0;stroke-opacity:1;paint-order:stroke markers fill"></rect>
    <g transform="matrix(0.26458333,0,0,0.26458333,70.996435,134.07768)" id="g8" style="fill:#999999">
      <path style="fill:#999999" d="m 255.2,363.2 c -0.4,0 -0.8,0.4 -1.6,0.4 -0.4,0 -0.8,-0.4 -1.6,-0.4 z" id="path4" inkscape:connector-curvature="0"></path>
      <path style="fill:#999999" d="m 458.4,404 c -46,62.8 -120.8,104 -204.8,104 -84,0 -158.4,-40.8 -204.8,-104 36,-38.4 84.8,-58.8 125.6,-69.2 -3.6,29.2 11.6,68.4 12,67.2 15.2,-35.2 66.8,-38.4 66.8,-38.4 0,0 51.6,2.8 67.2,38.4 0.4,0.8 15.6,-38 12,-67.2 41.2,10.4 90,30.8 126,69.2 z" id="path6" inkscape:connector-curvature="0"></path>
    </g>
    <path inkscape:connector-curvature="0" style="fill:#b3b3b3;stroke-width:0.26458332" d="m 154.81643,215.56935 v 0 c 0,1.37583 -0.84667,8.67833 -16.29834,14.605 h -0.84666 c -15.45167,-5.92667 -16.29834,-13.22917 -16.29834,-14.605 v 0 c 0.10584,-2.75167 0.74084,-5.50333 1.905,-8.04333 4.23334,4.7625 9.31334,7.9375 14.81667,7.9375 5.3975,0 10.58333,-3.06917 14.81667,-7.9375 1.16416,2.54 1.905,5.29166 1.905,8.04333 z" id="path10"></path>
    <path inkscape:connector-curvature="0" style="fill:#f9f9f9;stroke-width:0.26458332" d="m 147.30226,232.60852 -3.38667,6.77333 h -11.64166 l -3.38667,-6.77333 c 4.65667,-2.01084 9.2075,-2.32834 9.2075,-2.32834 0,0 4.65667,0.3175 9.2075,2.32834 z" id="path12"></path>
    <path inkscape:connector-curvature="0" style="fill:#f9f9f9;stroke-width:0.26458332" d="m 128.67559,267.85102 c 3.06917,0.42333 6.24417,0.635 9.525,0.635 3.175,0 6.35,-0.21167 9.525,-0.635 l -3.70416,-28.36334 h -11.64167 z" id="path14"></path>
    <g transform="matrix(0.26458333,0,0,0.26458333,70.996435,134.07768)" id="g20" style="fill:#e6e6e6">
      <path style="fill:#e6e6e6" d="m 316.8,307.2 c 0,0 2.8,32 -63.2,56.4 0,0 51.6,2.8 67.2,38.4 0.4,1.6 30.4,-76 -4,-94.8 z" id="path16" inkscape:connector-curvature="0"></path>
      <path style="fill:#e6e6e6" d="m 190.4,307.2 c -34,18.8 -4.4,96 -3.6,94.8 C 202,366.8 254,363.6 254,363.6 187.6,339.2 190.4,307.2 190.4,307.2 Z" id="path18" inkscape:connector-curvature="0"></path>
    </g>
    <path inkscape:connector-curvature="0" style="fill:#999999;stroke-width:0.26458332" d="m 153.75809,209.64268 c -4.445,4.7625 -9.73666,7.83167 -15.66333,7.83167 -5.92667,0 -11.21833,-3.06917 -15.66333,-7.83167 0.21166,-0.74083 0.52916,-1.48166 0.84666,-2.11666 4.23334,4.7625 9.31334,7.9375 14.81667,7.9375 5.50333,0 10.58333,-3.06917 14.81667,-7.9375 0.3175,0.635 0.635,1.37583 0.84666,2.11666 z" id="path22"></path>
    <path inkscape:connector-curvature="0" style="fill:#cccccc;stroke-width:0.26458332" d="m 166.98726,193.45018 c -2.2225,3.70417 -5.60917,5.92667 -8.14917,5.50334 -5.08,9.41916 -12.48833,16.40416 -20.74333,16.40416 -8.255,0 -15.66333,-7.09083 -20.74333,-16.40416 -2.54,0.3175 -5.92667,-1.79917 -8.14917,-5.50334 -2.64583,-4.33916 -2.75167,-9.10166 -0.21167,-10.68916 0.635,-0.3175 1.27,-0.52917 2.01084,-0.42334 1.69333,4.33917 4.02166,6.985 4.02166,6.985 -2.43416,-13.44083 7.51417,-14.9225 5.82084,-27.83416 0,0 6.24416,13.86416 24.13,4.1275 l -1.37584,2.64583 c 24.97667,-5.60917 16.61584,23.8125 16.40417,24.55333 2.8575,-3.59833 4.65667,-7.19666 5.715,-10.4775 0.42333,0 0.9525,0.21167 1.27,0.42334 2.75167,1.48166 2.64583,6.35 0,10.68916 z" id="path24"></path>
    <path inkscape:connector-curvature="0" style="fill:#4d4d4d;stroke-width:0.26458332" d="m 152.48809,147.51852 c 2.01084,-0.21167 5.29167,1.5875 5.29167,1.5875 -8.99583,-10.26584 -23.70667,-3.70417 -23.70667,-3.70417 4.97417,-4.23333 9.41917,-3.81 9.41917,-3.81 -21.06083,-3.175 -24.65917,9.41917 -24.65917,9.41917 -0.9525,-1.48167 -0.9525,-3.59834 -0.84666,-4.65667 -1.48167,2.54 0.10583,7.62 0.10583,7.62 -1.48167,-3.70416 -6.6675,-3.06916 -6.6675,-3.06916 4.445,0.74083 5.18583,3.4925 5.18583,3.4925 -11.1125,4.1275 -9.2075,15.66333 -9.2075,15.66333 l 2.64584,-3.175 c -3.28084,12.59416 5.08,22.33083 5.08,22.33083 -2.43417,-13.44083 7.51416,-14.9225 5.82083,-27.83417 0,0 6.24417,13.86417 24.13,4.1275 l -1.37583,2.64584 c 25.29416,-5.715 16.40416,24.65916 16.40416,24.65916 8.99584,-11.43 7.62,-23.1775 7.62,-23.1775 l 1.05834,4.23334 c 2.85749,-19.05 -16.29834,-26.3525 -16.29834,-26.3525 z" id="path26"></path>
    <g transform="matrix(0.02110487,0,0,0.02110487,150.1544,242.97514)" id="g15385" style="fill:#fdd835;fill-opacity:1"></g>
    <path id="rect16669" style="opacity:1;fill:#cddc23;fill-opacity:1;stroke:#ffffff;stroke-width:0;stroke-linecap:round;stroke-linejoin:round;stroke-miterlimit:4;stroke-dasharray:none;stroke-dashoffset:0;stroke-opacity:1;paint-order:stroke markers fill" d="m 156.22437,253.82766 4.37261,1.2837 4.3325,-7.30106 0.63988,1.94577 -4.04971,8.72501 -4.62477,-3.15611 z m 12.53186,-8.52676 h -1.07846 c -1.68839,0 -4.75914,-0.79355 -5.97901,-1.60608 -0.30602,-0.18362 -0.65003,-0.50863 -1.01725,-0.50863 -0.22371,0 -1.68839,0.87374 -2.01341,1.01725 -0.56983,0.22372 -1.11855,0.40733 -1.62718,0.54873 -0.32502,0.0823 -0.65003,0.18361 -0.97716,0.22371 -0.75344,0.1414 -1.54487,0.24482 -2.33842,0.32502 h -1.11855 c -0.28492,0 -0.50863,0.40732 -0.50863,0.54872 l 0.0422,2.35953 c 0.20261,1.74959 0.32501,3.60049 0.75344,5.34797 0.46853,1.891 1.07846,3.92551 2.23712,5.7553 0.36511,0.65003 0.93494,1.24097 1.40347,1.891 0.42632,0.65214 3.31347,2.66554 4.14711,2.66554 0.32501,0 1.36337,-0.54873 1.48367,-0.58882 4.39404,-2.48194 5.69621,-7.01737 6.44754,-10.37305 0.32501,-1.52588 0.50863,-3.27336 0.65003,-4.75915 l 0.0401,-1.60608 c 0.0232,-0.30602 0.0633,-1.09745 -0.54662,-1.24096 z" inkscape:connector-curvature="0"></path>
    <ellipse style="opacity:1;fill:url(#radialGradient16716);fill-opacity:1;stroke:#ffffff;stroke-width:0;stroke-linecap:round;stroke-linejoin:round;stroke-miterlimit:4;stroke-dasharray:none;stroke-dashoffset:0;stroke-opacity:1;paint-order:stroke markers fill" id="path16706" cx="161.05565" cy="254.81783" rx="23.0841" ry="23.0841"><animate attributeType="auto" attributeName="rx" values="0;50;0" calcMode="spline" keyTimes="0;0.5;1" keySplines=".25 0 .75 1;.25 0 .75 1" dur="5s" begin="0s" repeatCount="indefinite" additive="replace" accumulate="none" fill="freeze" id="animate5362"></animate><animate attributeType="auto" attributeName="ry" values="0;50;0" calcMode="spline" keyTimes="0;0.5;1" keySplines=".25 0 .75 1;.25 0 .75 1" dur="5s" begin="0s" repeatCount="indefinite" additive="replace" accumulate="none" fill="freeze" id="animate8491"></animate></ellipse>
  </g>
</svg>