<?xml version='1.0' encoding='UTF-8' standalone='no'?>
<!DOCTYPE svg PUBLIC '-//W3C//DTD SVG 1.1//EN' 'http://www.w3.org/Graphics/SVG/1.1/DTD/svg11.dtd'>
<!-- Animated using aniGen version 0.8.1 Quality of Life - http://anigen.org -->
<svg xmlns:dc="http://purl.org/dc/elements/1.1/" xmlns:cc="http://creativecommons.org/ns#" xmlns:rdf="http://www.w3.org/1999/02/22-rdf-syntax-ns#" xmlns:svg="http://www.w3.org/2000/svg" xmlns="http://www.w3.org/2000/svg" xmlns:sodipodi="http://sodipodi.sourceforge.net/DTD/sodipodi-0.dtd" xmlns:inkscape="http://www.inkscape.org/namespaces/inkscape" width="800mm" height="800mm" viewBox="0 0 211.66666 211.66667" version="1.1" id="svg3127" sodipodi:docname="user-experience.svg" inkscape:version="0.92.4 (5da689c313, 2019-01-14)" preserveAspectRatio="xMidYMid" xmlns:xlink="http://www.w3.org/1999/xlink" xmlns:anigen="http://www.anigen.org/namespace" anigen:version="0.8.1">
  <defs id="defs3121"></defs>
  <sodipodi:namedview id="base" pagecolor="#ffffff" bordercolor="#666666" borderopacity="1.0" inkscape:pageopacity="0.0" inkscape:pageshadow="2" inkscape:zoom="0.98994949" inkscape:cx="243.84642" inkscape:cy="-57.39138000000003" inkscape:document-units="mm" inkscape:current-layer="layer1" showgrid="false" units="px" inkscape:window-width="2100" inkscape:window-height="1234" inkscape:window-x="2391" inkscape:window-y="-9" inkscape:window-maximized="1"></sodipodi:namedview>
  <metadata id="metadata3124">
    <rdf:rdf id="rdf:rdf4298">
      <cc:work rdf:about="" id="cc:work6047">
        <dc:format id="dc:format6878">image/svg+xml</dc:format>
        <dc:type rdf:resource="http://purl.org/dc/dcmitype/StillImage" id="dc:type7718"></dc:type>
        <dc:title id="dc:title3637"></dc:title>
      </cc:work>
    </rdf:rdf>
  </metadata>
  <g inkscape:label="Layer 1" inkscape:groupmode="layer" id="layer1" transform="translate(0,-85.333317)">
    <path style="opacity:1;fill:#333333;fill-opacity:1;stroke:#cddc23;stroke-width:0;stroke-linecap:round;stroke-linejoin:round;stroke-miterlimit:4;stroke-dasharray:none;stroke-dashoffset:0;stroke-opacity:1;paint-order:stroke markers fill" d="m 28.5808,130.67249 c -2.74999,0 -4.96383,2.21384 -4.96383,4.96383 v 96.14255 c 0,2.75 2.21384,4.96383 4.96383,4.96383 h 61.74259 c -0.0633,3.19593 -0.82282,5.4956 -2.32626,9.2414 H 70.85915 c -1.84137,0 -3.32382,1.50858 -3.32382,3.38254 v 3.45612 c 0,1.87395 1.48245,1.72433 3.32382,1.72433 h 68.2778 c 1.84138,0 3.22436,0.21542 3.25892,-1.65819 l 0.0653,-3.52226 c 0.0347,-1.87362 -1.48244,-3.38254 -3.32383,-3.38254 h -17.13756 c -1.29074,-3.10346 -1.86029,-6.13776 -1.93394,-9.2414 h 61.35026 c 2.75,0 4.96384,-2.21383 4.96384,-4.96383 v -96.14255 c 0,-2.74999 -2.21384,-4.96383 -4.96384,-4.96383 z m 1.20675,5.74766 h 150.76909 v 86.21489 H 29.78755 Z m 5.61289,90.12865 a 2.19456,2.19456 0 0 1 4.2e-4,0 2.19456,2.19456 0 0 1 1.68217,0.71438 2.19456,2.19456 0 0 1 -0.12195,3.08239 2.19456,2.19456 0 0 1 -3.08405,-0.0852 2.19456,2.19456 0 0 1 0.0488,-3.08487 l 1.53624,1.56682 -1.46017,-1.63793 a 2.19456,2.19456 0 0 1 1.39857,-0.55563 z m 8.35959,0 a 2.19456,2.19456 0 0 1 1.68217,0.71438 2.19456,2.19456 0 0 1 -0.12195,3.08239 2.19456,2.19456 0 0 1 -3.08364,-0.0852 2.19456,2.19456 0 0 1 0.0484,-3.08487 l 1.53665,1.56682 -1.46017,-1.63793 a 2.19456,2.19456 0 0 1 1.39857,-0.55563 z m 8.35918,0 a 2.19456,2.19456 0 0 1 4.3e-4,0 2.19456,2.19456 0 0 1 1.68217,0.71438 2.19456,2.19456 0 0 1 -0.12237,3.08239 2.19456,2.19456 0 0 1 -3.08364,-0.0852 2.19456,2.19456 0 0 1 0.0488,-3.08487 l 1.53624,1.56682 -1.46017,-1.63793 a 2.19456,2.19456 0 0 1 1.39857,-0.55563 z" id="rect3683" inkscape:connector-curvature="0"></path>
    <rect style="opacity:1;fill:#1a1a1a;fill-opacity:1;stroke:#ffffff;stroke-width:0;stroke-linecap:round;stroke-linejoin:round;stroke-miterlimit:4;stroke-dasharray:none;stroke-dashoffset:0;stroke-opacity:1;paint-order:stroke markers fill" id="rect8015" width="150.76909" height="86.21489" x="29.78755" y="136.42014"></rect>
    <rect style="opacity:0.51000001;fill:#cddc23;fill-opacity:1;stroke:#ffffff;stroke-width:0;stroke-linecap:round;stroke-linejoin:round;stroke-miterlimit:4;stroke-dasharray:none;stroke-dashoffset:0;stroke-opacity:1;paint-order:stroke markers fill" id="rect14783" width="150.8125" height="6.8035712" x="29.78755" y="136.42015" ry="0"></rect>
    <rect style="opacity:0.13500001;fill:#cddc23;fill-opacity:1;stroke:#ffffff;stroke-width:0;stroke-linecap:round;stroke-linejoin:round;stroke-miterlimit:4;stroke-dasharray:none;stroke-dashoffset:0;stroke-opacity:1;paint-order:stroke markers fill" id="rect14783-0" width="35.529762" height="3.174999" x="83.43824" y="149.24911" ry="0"></rect>
    <rect style="opacity:0.13500001;fill:#cddc23;fill-opacity:1;stroke:#ffffff;stroke-width:0;stroke-linecap:round;stroke-linejoin:round;stroke-miterlimit:4;stroke-dasharray:none;stroke-dashoffset:0;stroke-opacity:1;paint-order:stroke markers fill" id="rect14783-0-6" width="64.255951" height="2.1166656" x="69.075142" y="155.97708" ry="0"></rect>
    <rect style="opacity:0.13500001;fill:#cddc23;fill-opacity:1;stroke:#ffffff;stroke-width:0;stroke-linecap:round;stroke-linejoin:round;stroke-miterlimit:4;stroke-dasharray:none;stroke-dashoffset:0;stroke-opacity:1;paint-order:stroke markers fill" id="rect14783-0-5" width="47.813988" height="2.1166656" x="77.296127" y="161.64671" ry="0"></rect>
    <rect style="opacity:0.13500001;fill:#cddc23;fill-opacity:1;stroke:#ffffff;stroke-width:0;stroke-linecap:round;stroke-linejoin:round;stroke-miterlimit:4;stroke-dasharray:none;stroke-dashoffset:0;stroke-opacity:1;paint-order:stroke markers fill" id="rect14783-0-5-5" width="136.07143" height="25.891365" x="37.703125" y="169.81099" ry="0"></rect>
    <rect style="opacity:0.13500001;fill:#cddc23;fill-opacity:1;stroke:#ffffff;stroke-width:0;stroke-linecap:round;stroke-linejoin:round;stroke-miterlimit:4;stroke-dasharray:none;stroke-dashoffset:0;stroke-opacity:1;paint-order:stroke markers fill" id="rect14783-0-8" width="19.276787" height="3.174999" x="37.419643" y="201.03183" ry="0"></rect>
    <rect ry="0" y="208.06218" x="37.419643" height="2.1166658" width="92.226189" id="rect14860" style="opacity:0.13500001;fill:#cddc23;fill-opacity:1;stroke:#ffffff;stroke-width:0;stroke-linecap:round;stroke-linejoin:round;stroke-miterlimit:4;stroke-dasharray:none;stroke-dashoffset:0;stroke-opacity:1;paint-order:stroke markers fill"></rect>
    <rect ry="0" y="214.56337" x="37.419643" height="2.1166658" width="135.88243" id="rect14860-5" style="opacity:0.13500001;fill:#cddc23;fill-opacity:1;stroke:#ffffff;stroke-width:0;stroke-linecap:round;stroke-linejoin:round;stroke-miterlimit:4;stroke-dasharray:none;stroke-dashoffset:0;stroke-opacity:1;paint-order:stroke markers fill"></rect>
    <path style="opacity:1;fill:#fdd835;fill-opacity:1;stroke:#ffffff;stroke-width:0;stroke-linecap:round;stroke-linejoin:round;stroke-miterlimit:4;stroke-dasharray:none;stroke-dashoffset:0;stroke-opacity:1;paint-order:stroke markers fill" d="M 455.94336 263.71289 C 408.28774999999996 263.65919 352.98240999999996 292.7822 326.89257999999995 369.13281 L 362.21874999999994 405.81055000000003 C 446.41248999999993 377.39545000000004 472.28522999999996 316.31690000000003 467.8730499999999 264.34375 C 463.96674999999993 263.9311 459.98196999999993 263.71743 455.9433599999999 263.71289 Z M 419.25390999999996 296.90234000000004 L 419.45703 296.90234000000004 C 428.46628999999996 296.90234000000004 435.72069999999997 304.15668000000005 435.72069999999997 313.16602000000006 C 435.72069999999997 322.17524000000003 428.46628999999996 329.42773000000005 419.45703 329.42773000000005 L 419.25390999999996 329.42773000000005 C 410.24467999999996 329.42773000000005 402.99218999999994 322.17524000000003 402.99218999999994 313.16602000000006 C 402.99218999999994 304.15668000000005 410.24467999999996 296.90234000000004 419.25390999999996 296.90234000000004 Z M 330.83007999999995 316.90625000000006 C 317.04506999999995 317.04750000000007 287.66799 326.6497800000001 273.67968999999994 356.76367000000005 C 286.65908999999994 346.4632500000001 300.6722699999999 346.3738900000001 315.36522999999994 353.01172 C 322.3335399999999 334.81987000000004 327.80537999999996 326.20213 333.36913999999996 317 C 332.59790999999996 316.9286 331.74907999999994 316.89683 330.83007999999995 316.9063 Z M 323.32811999999996 389.13086000000004 C 299.84378 398.72746000000006 291.15758999999997 423.51212000000004 289.80468999999994 442.82422 C 308.3164699999999 438.75038 327.30022999999994 439.51517 343.23046999999997 408.88867000000005 L 338.16796999999997 404.25977000000006 C 339.68568999999997 405.47398000000004 316.58806 423.8749200000001 311.38867 421.1601600000001 C 306.82293 418.7762900000001 326.74190999999996 392.8535300000001 328.16406 394.25781000000006 Z M 415.03319999999997 398.33594000000005 C 405.88806999999997 403.99291000000005 397.32514999999995 409.5522500000001 379.20507999999995 416.70508000000007 C 385.99186 431.3298500000001 386.04689999999994 445.34238000000005 375.87890999999996 458.4257800000001 C 407.84709999999995 443.17928000000006 416.30100999999996 410.6634000000001 415.03319999999997 398.3359400000001 Z" transform="matrix(0.264583 0 0 0.264583 -52.5279 153.013)" id="rect14716-2" inkscape:connector-curvature="0" inkscape:transform-center-x="52.52793251098092" inkscape:transform-center-y="NaN"><animateTransform attributeName="transform" attributeType="auto" type="translate" values="-12.589308626328178 48.67417625521146;487.55559475802676 -455.28862715497826" calcMode="spline" keyTimes="0;1" keySplines=".5 0 .5 1" dur="5s" begin="0s" repeatCount="indefinite" additive="sum" accumulate="none" fill="freeze" id="animateTransform8265"></animateTransform><animate attributeType="auto" attributeName="opacity" values="0;1;1;0" calcMode="spline" keyTimes="0;0.2;0.8;1" keySplines=".25 0 .75 1;.25 0 .75 1;.25 0 .75 1" dur="5s" begin="0s" repeatCount="indefinite" additive="replace" accumulate="none" fill="freeze" id="animate4697"></animate></path>
  </g>
</svg>