<?xml version="1.0" encoding="UTF-8" standalone="no"?>
<!-- Created with Inkscape (http://www.inkscape.org/) -->

<svg
   xmlns:dc="http://purl.org/dc/elements/1.1/"
   xmlns:cc="http://creativecommons.org/ns#"
   xmlns:rdf="http://www.w3.org/1999/02/22-rdf-syntax-ns#"
   xmlns:svg="http://www.w3.org/2000/svg"
   xmlns="http://www.w3.org/2000/svg"
   xmlns:sodipodi="http://sodipodi.sourceforge.net/DTD/sodipodi-0.dtd"
   xmlns:inkscape="http://www.inkscape.org/namespaces/inkscape"
   width="800"
   height="800"
   viewBox="0 0 211.66666 211.66667"
   version="1.1"
   id="svg3127"
   sodipodi:docname="user-experience-icon.svg"
   inkscape:version="0.92.4 (5da689c313, 2019-01-14)">
  <defs
     id="defs3121" />
  <sodipodi:namedview
     id="base"
     pagecolor="#ffffff"
     bordercolor="#666666"
     borderopacity="1.0"
     inkscape:pageopacity="0.0"
     inkscape:pageshadow="2"
     inkscape:zoom="0.49497475"
     inkscape:cx="410.36657"
     inkscape:cy="225.56007"
     inkscape:document-units="mm"
     inkscape:current-layer="layer1"
     showgrid="false"
     units="px"
     inkscape:window-width="2100"
     inkscape:window-height="1234"
     inkscape:window-x="2391"
     inkscape:window-y="-9"
     inkscape:window-maximized="1" />
  <metadata
     id="metadata3124">
    <rdf:RDF>
      <cc:Work
         rdf:about="">
        <dc:format>image/svg+xml</dc:format>
        <dc:type
           rdf:resource="http://purl.org/dc/dcmitype/StillImage" />
        <dc:title></dc:title>
      </cc:Work>
    </rdf:RDF>
  </metadata>
  <g
     inkscape:label="Layer 1"
     inkscape:groupmode="layer"
     id="layer1"
     transform="translate(0,-85.333317)">
    <rect
       style="opacity:1;fill:#333333;fill-opacity:0.94117647;stroke:none;stroke-width:0;stroke-linecap:round;stroke-linejoin:round;stroke-miterlimit:4;stroke-dasharray:none;stroke-dashoffset:0;stroke-opacity:1;paint-order:stroke markers fill"
       id="rect5885"
       width="211.66667"
       height="211.66667"
       x="-0.014821778"
       y="85.336319"
       ry="105.83334" />
    <g
       id="g15174"
       transform="matrix(1.1,0,0,1.1,-9.3009789,-14.67945)">
      <path
         inkscape:connector-curvature="0"
         id="rect14716-2"
         d="m 154.26171,131.59997 c -28.36996,-0.0319 -61.295026,17.30549 -76.826626,62.75797 l 21.030465,21.83479 c 50.121591,-16.91588 65.524011,-53.27671 62.897371,-84.21698 -2.32545,-0.24564 -4.69696,-0.37308 -7.10121,-0.37578 z m -21.84229,19.759 h 0.12156 c 5.36332,0 9.68172,4.31841 9.68172,9.68177 0,5.36331 -4.3184,9.68076 -9.68172,9.68076 h -0.12156 c -5.36331,0 -9.6808,-4.31745 -9.6808,-9.68076 0,-5.36336 4.31749,-9.68177 9.6808,-9.68177 z"
         style="opacity:1;fill:#cddc23;fill-opacity:1;stroke:#ffffff;stroke-width:0;stroke-linecap:round;stroke-linejoin:round;stroke-miterlimit:4;stroke-dasharray:none;stroke-dashoffset:0;stroke-opacity:1;paint-order:stroke markers fill" />
      <path
         sodipodi:nodetypes="ccscccc"
         inkscape:connector-curvature="0"
         id="rect14720-3"
         d="m 75.313585,206.26371 2.879477,3.05172 c -0.846624,-0.83598 -12.705577,14.59648 -9.987537,16.01562 3.095261,1.61612 16.845622,-9.33823 15.9421,-10.06105 l 3.013759,2.75543 c -9.48347,18.23235 -20.78379,17.77716 -31.804083,20.20236 0.805399,-11.49673 5.975759,-26.25111 19.956284,-31.96408 z"
         style="opacity:1;fill:#fdd835;fill-opacity:1;stroke:#ffffff;stroke-width:0;stroke-linecap:round;stroke-linejoin:round;stroke-miterlimit:4;stroke-dasharray:none;stroke-dashoffset:0;stroke-opacity:1;paint-order:stroke markers fill" />
      <path
         sodipodi:nodetypes="cccc"
         inkscape:connector-curvature="0"
         id="rect14722-3"
         d="m 108.57822,222.67839 c 10.7871,-4.25817 15.88429,-7.56801 21.3285,-10.93568 0.75473,7.3387 -4.27792,26.6962 -23.30898,35.77263 6.05313,-7.78871 6.02074,-16.13065 1.98048,-24.83695 z"
         style="opacity:1;fill:#cddc23;fill-opacity:1;stroke:#ffffff;stroke-width:0;stroke-linecap:round;stroke-linejoin:round;stroke-miterlimit:4;stroke-dasharray:none;stroke-dashoffset:0;stroke-opacity:1;paint-order:stroke markers fill" />
      <path
         style="opacity:1;fill:#cddc23;fill-opacity:1;stroke:#ffffff;stroke-width:0;stroke-linecap:round;stroke-linejoin:round;stroke-miterlimit:4;stroke-dasharray:none;stroke-dashoffset:0;stroke-opacity:1;paint-order:stroke markers fill"
         d="m 70.572916,184.76157 c 4.14832,-10.82985 7.406184,-15.96037 10.718359,-21.43853 -7.345987,-0.68014 -26.651347,4.54898 -35.53392,23.67129 7.726798,-6.13197 16.068654,-6.18435 24.815561,-2.23276 z"
         id="path14737-1"
         inkscape:connector-curvature="0"
         sodipodi:nodetypes="cccc" />
    </g>
  </g>
</svg>
