<?xml version="1.0" encoding="UTF-8" standalone="no"?>
<!-- Created with Inkscape (http://www.inkscape.org/) -->

<svg
   xmlns:dc="http://purl.org/dc/elements/1.1/"
   xmlns:cc="http://creativecommons.org/ns#"
   xmlns:rdf="http://www.w3.org/1999/02/22-rdf-syntax-ns#"
   xmlns:svg="http://www.w3.org/2000/svg"
   xmlns="http://www.w3.org/2000/svg"
   xmlns:sodipodi="http://sodipodi.sourceforge.net/DTD/sodipodi-0.dtd"
   xmlns:inkscape="http://www.inkscape.org/namespaces/inkscape"
   width="800"
   height="800"
   viewBox="0 0 211.66666 211.66667"
   version="1.1"
   id="svg3127"
   sodipodi:docname="user-experience.svg"
   inkscape:version="0.92.4 (5da689c313, 2019-01-14)">
  <defs
     id="defs3121" />
  <sodipodi:namedview
     id="base"
     pagecolor="#ffffff"
     bordercolor="#666666"
     borderopacity="1.0"
     inkscape:pageopacity="0.0"
     inkscape:pageshadow="2"
     inkscape:zoom="0.49497475"
     inkscape:cx="506.82857"
     inkscape:cy="19.940093"
     inkscape:document-units="mm"
     inkscape:current-layer="layer1"
     showgrid="false"
     units="px"
     inkscape:window-width="2100"
     inkscape:window-height="1234"
     inkscape:window-x="2391"
     inkscape:window-y="-9"
     inkscape:window-maximized="1" />
  <metadata
     id="metadata3124">
    <rdf:RDF>
      <cc:Work
         rdf:about="">
        <dc:format>image/svg+xml</dc:format>
        <dc:type
           rdf:resource="http://purl.org/dc/dcmitype/StillImage" />
        <dc:title></dc:title>
      </cc:Work>
    </rdf:RDF>
  </metadata>
  <g
     inkscape:label="Layer 1"
     inkscape:groupmode="layer"
     id="layer1"
     transform="translate(0,-85.333317)">
    <rect
       y="390.84454"
       x="275.13492"
       height="39.364525"
       width="26.803656"
       id="rect8021"
       style="opacity:1;fill:#333333;fill-opacity:1;stroke:#ffffff;stroke-width:0;stroke-linecap:round;stroke-linejoin:round;stroke-miterlimit:4;stroke-dasharray:none;stroke-dashoffset:0;stroke-opacity:1;paint-order:stroke markers fill" />
    <path
       style="opacity:1;fill:#333333;fill-opacity:1;stroke:#cddc23;stroke-width:0;stroke-linecap:round;stroke-linejoin:round;stroke-miterlimit:4;stroke-dasharray:none;stroke-dashoffset:0;stroke-opacity:1;paint-order:stroke markers fill"
       d="m 107.69258,320.96839 c -2.74999,0 -4.96383,2.21384 -4.96383,4.96383 v 96.14255 c 0,2.75 2.21384,4.96383 4.96383,4.96383 h 61.74259 c -0.0633,3.19593 -0.82282,5.4956 -2.32626,9.2414 h -17.13798 c -1.84137,0 -3.32382,1.50858 -3.32382,3.38254 v 3.45612 c 0,1.87395 1.48245,1.72433 3.32382,1.72433 h 68.2778 c 1.84138,0 3.22436,0.21542 3.25892,-1.65819 l 0.0653,-3.52226 c 0.0347,-1.87362 -1.48244,-3.38254 -3.32383,-3.38254 h -17.13756 c -1.29074,-3.10346 -1.86029,-6.13776 -1.93394,-9.2414 h 61.35026 c 2.75,0 4.96384,-2.21383 4.96384,-4.96383 v -96.14255 c 0,-2.74999 -2.21384,-4.96383 -4.96384,-4.96383 z m 1.20675,5.74766 h 150.76909 v 86.21489 H 108.89933 Z m 5.61289,90.12865 a 2.19456,2.19456 0 0 1 4.2e-4,0 2.19456,2.19456 0 0 1 1.68217,0.71438 2.19456,2.19456 0 0 1 -0.12195,3.08239 2.19456,2.19456 0 0 1 -3.08405,-0.0852 2.19456,2.19456 0 0 1 0.0488,-3.08487 l 1.53624,1.56682 -1.46017,-1.63793 a 2.19456,2.19456 0 0 1 1.39857,-0.55563 z m 8.35959,0 a 2.19456,2.19456 0 0 1 1.68217,0.71438 2.19456,2.19456 0 0 1 -0.12195,3.08239 2.19456,2.19456 0 0 1 -3.08364,-0.0852 2.19456,2.19456 0 0 1 0.0484,-3.08487 l 1.53665,1.56682 -1.46017,-1.63793 a 2.19456,2.19456 0 0 1 1.39857,-0.55563 z m 8.35918,0 a 2.19456,2.19456 0 0 1 4.3e-4,0 2.19456,2.19456 0 0 1 1.68217,0.71438 2.19456,2.19456 0 0 1 -0.12237,3.08239 2.19456,2.19456 0 0 1 -3.08364,-0.0852 2.19456,2.19456 0 0 1 0.0488,-3.08487 l 1.53624,1.56682 -1.46017,-1.63793 a 2.19456,2.19456 0 0 1 1.39857,-0.55563 z"
       id="rect3683"
       inkscape:connector-curvature="0" />
    <g
       id="g6053"
       transform="matrix(-2.13626,0,0,2.2205972,317.84943,383.35446)"
       style="fill:#666666;fill-opacity:1;stroke:#cddc23;stroke-width:0;stroke-miterlimit:4;stroke-dasharray:none;stroke-opacity:1">
      <path
         d="M 19.494,0 H 7.948 C 6.843,0 5.951,0.896 5.951,1.999 v 23.446 c 0,1.102 0.892,1.997 1.997,1.997 h 11.546 c 1.103,0 1.997,-0.895 1.997,-1.997 V 1.999 C 21.491,0.896 20.597,0 19.494,0 Z m -8.622,1.214 h 5.7 c 0.144,0 0.261,0.215 0.261,0.481 0,0.266 -0.117,0.482 -0.261,0.482 h -5.7 c -0.145,0 -0.26,-0.216 -0.26,-0.482 0,-0.266 0.115,-0.481 0.26,-0.481 z m 2.85,24.255 c -0.703,0 -1.275,-0.572 -1.275,-1.276 0,-0.704 0.572,-1.274 1.275,-1.274 0.701,0 1.273,0.57 1.273,1.274 0,0.704 -0.572,1.276 -1.273,1.276 z M 19.995,21.1 H 7.448 V 3.373 h 12.547 z"
         id="path6021"
         inkscape:connector-curvature="0"
         style="fill:#666666;fill-opacity:1;stroke:#cddc23;stroke-width:0;stroke-miterlimit:4;stroke-dasharray:none;stroke-opacity:1" />
      <g
         id="g6023"
         style="fill:#666666;fill-opacity:1;stroke:#cddc23;stroke-width:0;stroke-miterlimit:4;stroke-dasharray:none;stroke-opacity:1" />
      <g
         id="g6025"
         style="fill:#666666;fill-opacity:1;stroke:#cddc23;stroke-width:0;stroke-miterlimit:4;stroke-dasharray:none;stroke-opacity:1" />
      <g
         id="g6027"
         style="fill:#666666;fill-opacity:1;stroke:#cddc23;stroke-width:0;stroke-miterlimit:4;stroke-dasharray:none;stroke-opacity:1" />
      <g
         id="g6029"
         style="fill:#666666;fill-opacity:1;stroke:#cddc23;stroke-width:0;stroke-miterlimit:4;stroke-dasharray:none;stroke-opacity:1" />
      <g
         id="g6031"
         style="fill:#666666;fill-opacity:1;stroke:#cddc23;stroke-width:0;stroke-miterlimit:4;stroke-dasharray:none;stroke-opacity:1" />
      <g
         id="g6033"
         style="fill:#666666;fill-opacity:1;stroke:#cddc23;stroke-width:0;stroke-miterlimit:4;stroke-dasharray:none;stroke-opacity:1" />
      <g
         id="g6035"
         style="fill:#666666;fill-opacity:1;stroke:#cddc23;stroke-width:0;stroke-miterlimit:4;stroke-dasharray:none;stroke-opacity:1" />
      <g
         id="g6037"
         style="fill:#666666;fill-opacity:1;stroke:#cddc23;stroke-width:0;stroke-miterlimit:4;stroke-dasharray:none;stroke-opacity:1" />
      <g
         id="g6039"
         style="fill:#666666;fill-opacity:1;stroke:#cddc23;stroke-width:0;stroke-miterlimit:4;stroke-dasharray:none;stroke-opacity:1" />
      <g
         id="g6041"
         style="fill:#666666;fill-opacity:1;stroke:#cddc23;stroke-width:0;stroke-miterlimit:4;stroke-dasharray:none;stroke-opacity:1" />
      <g
         id="g6043"
         style="fill:#666666;fill-opacity:1;stroke:#cddc23;stroke-width:0;stroke-miterlimit:4;stroke-dasharray:none;stroke-opacity:1" />
      <g
         id="g6045"
         style="fill:#666666;fill-opacity:1;stroke:#cddc23;stroke-width:0;stroke-miterlimit:4;stroke-dasharray:none;stroke-opacity:1" />
      <g
         id="g6047"
         style="fill:#666666;fill-opacity:1;stroke:#cddc23;stroke-width:0;stroke-miterlimit:4;stroke-dasharray:none;stroke-opacity:1" />
      <g
         id="g6049"
         style="fill:#666666;fill-opacity:1;stroke:#cddc23;stroke-width:0;stroke-miterlimit:4;stroke-dasharray:none;stroke-opacity:1" />
      <g
         id="g6051"
         style="fill:#666666;fill-opacity:1;stroke:#cddc23;stroke-width:0;stroke-miterlimit:4;stroke-dasharray:none;stroke-opacity:1" />
    </g>
    <rect
       style="opacity:1;fill:#1a1a1a;fill-opacity:1;stroke:#ffffff;stroke-width:0;stroke-linecap:round;stroke-linejoin:round;stroke-miterlimit:4;stroke-dasharray:none;stroke-dashoffset:0;stroke-opacity:1;paint-order:stroke markers fill"
       id="rect8015"
       width="150.76909"
       height="86.21489"
       x="108.89933"
       y="326.71603" />
    <path
       style="opacity:1;fill:#cddc23;fill-opacity:1;stroke:#f2f2f2;stroke-width:0;stroke-linecap:round;stroke-miterlimit:0;stroke-dasharray:none;stroke-opacity:1;paint-order:stroke fill markers"
       d="m 193.40554,357.23094 a 4.6342865,4.6342865 0 0 0 -4.63432,4.63418 4.6342865,4.6342865 0 0 0 4.63432,4.63431 4.6342865,4.6342865 0 0 0 4.63431,-4.63431 4.6342865,4.6342865 0 0 0 -4.63431,-4.63418 z m -4.19039,0.0155 -4.04612,0.56109 c -2.26712,4.13348 -7.11229,7.02383 -9.70443,9.82352 0.1151,-3.61009 -1.31649,-8.39812 -5.15667,-9.91116 l -2.375,0.20185 c 2.42281,7.64765 0.54269,15.65843 -0.84748,23.30609 l 7.25817,-0.36318 c 0.0516,-4.09517 1.10599,-8.14193 1.11882,-11.92676 2.93096,2.92229 5.20344,6.65479 6.16102,12.00587 l 7.59873,0.96858 c -1.86039,-4.44058 -3.03969,-9.77296 -6.22198,-13.60342 3.61969,-2.75982 4.44602,-7.38703 6.21494,-11.06248 z m 4.19039,15.1678 a 4.6342865,4.6342865 0 0 0 -4.63432,4.63417 4.6342865,4.6342865 0 0 0 4.63432,4.63432 4.6342865,4.6342865 0 0 0 4.63431,-4.63432 4.6342865,4.6342865 0 0 0 -4.63431,-4.63417 z"
       id="rect83-6"
       inkscape:connector-curvature="0"
       class="logo-first" />
    <path
       style="opacity:1;fill:#fdd835;fill-opacity:1;stroke:#f2f2f2;stroke-width:0;stroke-linecap:round;stroke-miterlimit:0;stroke-dasharray:none;stroke-opacity:1;paint-order:stroke fill markers"
       d="m 295.27981,404.31486 a 2.3727547,2.3727547 0 0 0 -2.37277,2.37269 2.3727547,2.3727547 0 0 0 2.37277,2.37277 2.3727547,2.3727547 0 0 0 2.37277,-2.37277 2.3727547,2.3727547 0 0 0 -2.37277,-2.37269 z m -2.14548,0.008 -2.07162,0.28728 c -1.16076,2.11634 -3.64148,3.5962 -4.96866,5.02964 0.059,-1.84836 -0.67404,-4.29984 -2.64022,-5.07451 l -1.216,0.10334 c 1.24048,3.9156 0.27786,8.01712 -0.43391,11.93272 l 3.71619,-0.18594 c 0.0265,-2.09673 0.56627,-4.16868 0.57283,-6.10651 1.50065,1.49621 2.66416,3.40725 3.15445,6.14701 l 3.89054,0.49591 c -0.95252,-2.27357 -1.55631,-5.00376 -3.18566,-6.96495 1.8533,-1.41302 2.27637,-3.78216 3.18206,-5.66399 z m 2.14548,7.76591 a 2.3727547,2.3727547 0 0 0 -2.37277,2.3727 2.3727547,2.3727547 0 0 0 2.37277,2.37277 2.3727547,2.3727547 0 0 0 2.37277,-2.37277 2.3727547,2.3727547 0 0 0 -2.37277,-2.3727 z"
       id="rect83-6-6"
       inkscape:connector-curvature="0"
       class="logo-second" />
    <path
       style="opacity:1;fill:#e6e6e6;fill-opacity:1;stroke:#f2f2f2;stroke-width:0;stroke-linecap:round;stroke-miterlimit:0;stroke-dasharray:none;stroke-opacity:1;paint-order:stroke fill markers"
       d="m 189.2151,357.24643 -4.04614,0.56106 c -2.26711,4.13348 -7.11233,7.02383 -9.70446,9.82351 0.11509,-3.61008 -1.31642,-8.39801 -5.1566,-9.91105 l -2.37506,0.20178 c 2.42281,7.64765 0.54269,15.65852 -0.84748,23.30617 l 7.25818,-0.3632 c 0.0516,-4.09517 1.10595,-8.14203 1.11877,-11.92686 2.93097,2.9223 5.20358,6.65488 6.16115,12.00595 l 7.59874,0.96852 c -1.8604,-4.44057 -3.03969,-9.77292 -6.22199,-13.60339 3.6197,-2.75981 4.44597,-7.38704 6.21489,-11.06249 z"
       id="rect83-6-66"
       inkscape:connector-curvature="0"
       sodipodi:nodetypes="cccccccccccc" />
    <path
       sodipodi:nodetypes="cccccccccccc"
       inkscape:connector-curvature="0"
       id="path8633"
       d="m 293.13437,404.32288 -2.07163,0.28726 c -1.16075,2.11634 -3.64151,3.5962 -4.96868,5.02963 0.059,-1.84836 -0.674,-4.29977 -2.64018,-5.07445 l -1.21602,0.10331 c 1.24047,3.9156 0.27785,8.01716 -0.43392,11.93276 l 3.71619,-0.18596 c 0.0264,-2.09673 0.56625,-4.16872 0.57281,-6.10655 1.50065,1.49622 2.66423,3.40729 3.1545,6.14704 l 3.89056,0.49588 c -0.95252,-2.27356 -1.55633,-5.00372 -3.18566,-6.96493 1.85329,-1.41303 2.27634,-3.78216 3.18203,-5.66399 z"
       style="opacity:1;fill:#e6e6e6;fill-opacity:1;stroke:#f2f2f2;stroke-width:0;stroke-linecap:round;stroke-miterlimit:0;stroke-dasharray:none;stroke-opacity:1;paint-order:stroke fill markers" />
    <circle
       id="circle8708"
       r="94.297501"
       cy="189.05536"
       cx="104.59657"
       style="fill:#263740;stroke-width:1.47339845" />
    <path
       inkscape:connector-curvature="0"
       id="path8710"
       d="m 16.048266,221.54674 c 13.241431,36.07026 47.888394,61.80611 88.548294,61.80611 1.0137,0 2.01561,-0.0442 3.02194,-0.0766 -13.241429,-36.07027 -47.888392,-61.80612 -88.548294,-61.80612 -1.012225,0 -2.015609,0.0442 -3.02194,0.0766 z"
       style="fill:#e6e6e6;stroke-width:1.47339845" />
    <path
       style="fill:#cc584c;stroke-width:1.47339845"
       d="m 107.88077,154.27579 c -2.90407,-3.64224 -11.054911,-1.90805 -20.381522,4.33179 -6.48148,4.57343 -17.282964,23.91178 -18.454315,28.42185 -1.171352,4.51008 7.222599,3.39913 9.018671,2.34271 2.842186,-1.66936 10.866313,-14.02676 11.667842,-15.25999 0.803002,-1.23471 6.11313,-1.30101 10.191497,-2.16737 1.168407,-4.51007 6.354767,-15.1981 7.957827,-17.66899 z"
       id="path8712"
       inkscape:connector-curvature="0" />
    <path
       style="fill:#cc584c;stroke-width:1.47339845"
       d="m 140.00822,175.14206 c 4.51155,1.16987 6.24279,9.32219 4.33179,20.38004 -1.54412,7.78249 -14.81649,25.51632 -18.45579,28.42038 -3.64518,2.90849 -6.0424,-5.21435 -5.80961,-7.28153 0.36983,-3.27831 8.39395,-15.63128 9.19696,-16.86747 0.803,-1.2347 -1.29954,-6.11313 -2.16885,-10.19002 3.64519,-2.90996 11.30097,-11.99199 12.9055,-14.4614 z"
       id="path8714"
       inkscape:connector-curvature="0" />
    <path
       style="fill:#e6e6e6;stroke-width:1.47339845"
       d="m 168.88535,95.509292 c -3.71001,-2.407533 -27.79566,-0.480328 -46.25734,27.940058 -15.24672,23.48007 -23.944195,47.6939 -24.314018,50.96779 3.708548,2.41048 13.593578,8.82713 13.593578,8.82713 0,0 9.8865,6.41813 13.59357,8.82566 2.84366,-1.66789 22.22769,-20.70125 36.67583,-42.94367 18.45284,-28.42333 10.41104,-51.207961 6.70838,-53.616968 z"
       id="path8716"
       inkscape:connector-curvature="0" />
    <circle
       style="fill:#263740;stroke-width:1.47339845"
       cx="144.80855"
       cy="132.58"
       r="14.733984"
       id="circle8718" />
    <path
       style="fill:#c2e2f2;stroke-width:1.47339845"
       d="m 139.99201,139.99414 c -4.08573,-2.65801 -5.25266,-8.14053 -2.60055,-12.22921 2.65801,-4.08868 8.13906,-5.25414 12.23216,-2.60202 4.08426,2.65654 5.24972,8.13905 2.59907,12.23068 -2.65653,4.09015 -8.13758,5.25561 -12.23068,2.60055 z"
       id="path8720"
       inkscape:connector-curvature="0" />
    <path
       style="fill:#cc584c;stroke-width:1.47339845"
       d="m 159.25375,110.33757 c 4.53807,2.9468 9.50195,4.71341 14.53213,5.3897 0.51863,-11.31276 -2.8525,-18.886026 -4.90053,-20.222398 -2.05539,-1.329005 -10.34473,-1.326059 -20.46845,3.745379 2.66391,4.321479 6.29878,8.139049 10.83685,11.087319 z"
       id="path8722"
       inkscape:connector-curvature="0" />
    <g
       id="g8726"
       transform="matrix(1.4733984,0,0,1.4733984,10.299065,94.757859)">
      <path
         style="fill:#cc584c"
         d="m 76.598,72.167 c -0.6,0.923 -1.845,1.188 -2.768,0.589 L 55.38,60.776 C 54.457,60.175 54.192,58.93 54.791,58.007 l 2.18,-3.354 c 0.6,-0.922 1.844,-1.188 2.768,-0.588 l 18.449,11.982 c 0.924,0.6 1.188,1.844 0.59,2.769 z"
         id="path8724"
         inkscape:connector-curvature="0" />
    </g>
    <path
       style="fill:#bf5347;stroke-width:1.47339845"
       d="m 102.51907,184.17546 c -0.88404,1.36289 -1.96846,3.08972 -3.100029,5.0125 l 13.376979,8.68716 c 1.29807,-1.8167 2.43259,-3.51406 3.3181,-4.87548 0.88551,-1.36142 1.96846,-3.08824 3.10003,-5.00955 l -13.37404,-8.68716 c -1.30101,1.81523 -2.43847,3.50964 -3.32104,4.87253 z"
       id="path8728"
       inkscape:connector-curvature="0" />
    <path
       style="fill:#ffd464;stroke-width:1.47339845"
       d="m 94.366758,185.9067 c -9.749478,15.01099 -22.025833,45.42635 -15.54288,49.63585 6.480006,4.2095 29.270532,-19.37224 39.021482,-34.39059 z"
       id="path8730"
       inkscape:connector-curvature="0" />
    <path
       style="fill:#fdff00;stroke-width:1.47339845;fill-opacity:0"
       d="m 96.837647,187.51124 c -9.749478,15.01098 -13.503697,29.88051 -8.386584,33.20303 5.118586,3.32398 17.172457,-6.15586 26.921937,-21.16537 z"
       id="path8732"
       inkscape:connector-curvature="0" />
    <ellipse
       transform="rotate(-147.00279)"
       style="fill:#cc584c;stroke-width:1.47340345"
       cx="-194.40323"
       cy="-98.629066"
       rx="5.1569118"
       ry="25.046385"
       id="ellipse8734" />
    <g
       id="g8742"
       transform="matrix(1.4733984,0,0,1.4733984,10.299065,94.757859)">
      <ellipse
         id="ellipse8738"
         ry="4.5"
         rx="6"
         cy="96.481003"
         cx="22.933001"
         style="fill:#cccccc"
         transform="matrix(-0.9264,-0.3765,0.3765,-0.9264,7.8562,194.4982)" />
      <path
         inkscape:connector-curvature="0"
         id="path8740"
         d="m 23.26,100.669 c -3.07,-1.247 -4.801,-4.125 -3.865,-6.428 0.535,-1.318 1.84,-2.144 3.424,-2.39 -2.438,-0.35 -4.674,0.545 -5.424,2.39 -0.936,2.303 0.795,5.181 3.865,6.428 1.313,0.533 2.646,0.661 3.829,0.479 -0.607,-0.088 -1.22,-0.231 -1.829,-0.479 z"
         style="fill:#b3b3b3" />
    </g>
    <g
       id="g8748"
       transform="matrix(1.4733984,0,0,1.4733984,10.299065,94.757859)">
      <ellipse
         id="ellipse8744"
         ry="2.951"
         rx="3.9360001"
         cy="100.896"
         cx="38.973"
         style="fill:#cccccc"
         transform="matrix(-0.7008,-0.7133,0.7133,-0.7008,-5.6871,199.4058)" />
      <path
         inkscape:connector-curvature="0"
         id="path8746"
         d="m 38.051,103.457 c -1.521,-1.549 -1.813,-3.732 -0.65,-4.875 0.664,-0.655 1.664,-0.811 2.683,-0.547 -1.376,-0.845 -2.955,-0.892 -3.887,0.023 -1.163,1.145 -0.871,3.326 0.651,4.876 0.651,0.663 1.422,1.089 2.182,1.285 -0.344,-0.207 -0.676,-0.453 -0.979,-0.762 z"
         style="fill:#b3b3b3" />
    </g>
    <g
       id="g8754"
       transform="matrix(1.4733984,0,0,1.4733984,10.299065,94.757859)">
      <ellipse
         id="ellipse8750"
         ry="4.4759998"
         rx="5.9679999"
         cy="111.864"
         cx="36.917"
         style="fill:#cccccc"
         transform="matrix(-0.9624,-0.2718,0.2718,-0.9624,42.0374,229.5513)" />
      <path
         inkscape:connector-curvature="0"
         id="path8752"
         d="m 37.711,115.956 c -3.169,-0.896 -5.195,-3.552 -4.521,-5.931 0.382,-1.362 1.582,-2.318 3.121,-2.736 -2.447,-0.078 -4.562,1.05 -5.101,2.956 -0.673,2.378 1.354,5.035 4.525,5.93 1.356,0.384 2.688,0.363 3.839,0.054 -0.607,-0.02 -1.232,-0.094 -1.863,-0.273 z"
         style="fill:#b3b3b3" />
    </g>
    <path
       inkscape:connector-curvature="0"
       id="path8756"
       d="m 51.48497,125.69923 c 0,5.89359 -1.473398,7.36699 -7.366992,7.36699 5.893594,0 7.366992,1.4734 7.366992,7.36699 0,-5.89359 1.473399,-7.36699 7.366992,-7.36699 -5.893593,0 -7.366992,-1.4734 -7.366992,-7.36699 z"
       style="fill:#ffd835;fill-opacity:1;stroke-width:1.47339845" />
    <path
       inkscape:connector-curvature="0"
       id="path8758"
       d="m 32.330791,168.42778 c 0,5.89359 -1.473398,7.36699 -7.366992,7.36699 5.893594,0 7.366992,1.4734 7.366992,7.36699 0,-5.89359 1.473399,-7.36699 7.366992,-7.36699 -5.893593,0 -7.366992,-1.4734 -7.366992,-7.36699 z"
       style="fill:#ffd835;fill-opacity:1;stroke-width:1.47339845" />
    <path
       inkscape:connector-curvature="0"
       id="path8760"
       d="m 52.958369,194.94895 c 0,5.89359 -1.473399,7.36699 -7.366992,7.36699 5.893593,0 7.366992,1.4734 7.366992,7.36699 0,-5.89359 1.473398,-7.36699 7.366992,-7.36699 -5.893594,0 -7.366992,-1.4734 -7.366992,-7.36699 z"
       style="fill:#ffd835;fill-opacity:1;stroke-width:1.47339845" />
    <path
       inkscape:connector-curvature="0"
       id="path8762"
       d="m 131.04848,243.5711 c 0,5.89359 -1.47339,7.36699 -7.36699,7.36699 5.8936,0 7.36699,1.4734 7.36699,7.36699 0,-5.89359 1.4734,-7.36699 7.367,-7.36699 -5.8936,0 -7.367,-1.4734 -7.367,-7.36699 z"
       style="fill:#ffd835;fill-opacity:1;stroke-width:1.47339845" />
    <path
       inkscape:connector-curvature="0"
       id="path8764"
       d="m 184.09083,209.68293 c 0,5.8936 -1.4734,7.367 -7.367,7.367 5.8936,0 7.367,1.47339 7.367,7.36699 0,-5.8936 1.47339,-7.36699 7.36699,-7.36699 -5.8936,0 -7.36699,-1.4734 -7.36699,-7.367 z"
       style="fill:#ffd835;fill-opacity:1;stroke-width:1.47339845" />
    <path
       inkscape:connector-curvature="0"
       id="path8766"
       d="m 179.67063,158.11399 c 0,5.89359 -1.4734,7.36699 -7.36699,7.36699 5.89359,0 7.36699,1.4734 7.36699,7.36699 0,-5.89359 1.4734,-7.36699 7.36699,-7.36699 -5.89359,0 -7.36699,-1.4734 -7.36699,-7.36699 z"
       style="fill:#ffd835;fill-opacity:1;stroke-width:1.47339845" />
    <path
       inkscape:connector-curvature="0"
       id="path8768"
       d="m 106.00071,105.07165 c 0,5.89359 -1.4734,7.36699 -7.366991,7.36699 5.893591,0 7.366991,1.4734 7.366991,7.36699 0,-5.89359 1.4734,-7.36699 7.36699,-7.36699 -5.89359,0 -7.36699,-1.4734 -7.36699,-7.36699 z"
       style="fill:#ffd835;fill-opacity:1;stroke-width:1.47339845" />
    <path
       inkscape:connector-curvature="0"
       id="path8770"
       d="m 80.952938,136.01301 c 0,5.8936 -1.473398,7.367 -7.366992,7.367 5.893594,0 7.366992,1.47339 7.366992,7.36699 0,-5.8936 1.473399,-7.36699 7.366992,-7.36699 -5.893593,0 -7.366992,-1.4734 -7.366992,-7.367 z"
       style="fill:#ffd835;fill-opacity:1;stroke-width:1.47339845" />
  </g>
</svg>
