<?xml version="1.0" encoding="UTF-8" standalone="no"?>
<!-- Created with Inkscape (http://www.inkscape.org/) -->

<svg
   xmlns:dc="http://purl.org/dc/elements/1.1/"
   xmlns:cc="http://creativecommons.org/ns#"
   xmlns:rdf="http://www.w3.org/1999/02/22-rdf-syntax-ns#"
   xmlns:svg="http://www.w3.org/2000/svg"
   xmlns="http://www.w3.org/2000/svg"
   xmlns:sodipodi="http://sodipodi.sourceforge.net/DTD/sodipodi-0.dtd"
   xmlns:inkscape="http://www.inkscape.org/namespaces/inkscape"
   width="800"
   height="800"
   viewBox="0 0 211.66666 211.66667"
   version="1.1"
   id="svg3127"
   sodipodi:docname="user-experience-icon.svg"
   inkscape:version="0.92.4 (5da689c313, 2019-01-14)">
  <defs
     id="defs3121" />
  <sodipodi:namedview
     id="base"
     pagecolor="#ffffff"
     bordercolor="#666666"
     borderopacity="1.0"
     inkscape:pageopacity="0.0"
     inkscape:pageshadow="2"
     inkscape:zoom="0.49497475"
     inkscape:cx="410.36657"
     inkscape:cy="225.56007"
     inkscape:document-units="mm"
     inkscape:current-layer="layer1"
     showgrid="false"
     units="px"
     inkscape:window-width="2100"
     inkscape:window-height="1234"
     inkscape:window-x="2391"
     inkscape:window-y="-9"
     inkscape:window-maximized="1" />
  <metadata
     id="metadata3124">
    <rdf:RDF>
      <cc:Work
         rdf:about="">
        <dc:format>image/svg+xml</dc:format>
        <dc:type
           rdf:resource="http://purl.org/dc/dcmitype/StillImage" />
        <dc:title></dc:title>
      </cc:Work>
    </rdf:RDF>
  </metadata>
  <g
     inkscape:label="Layer 1"
     inkscape:groupmode="layer"
     id="layer1"
     transform="translate(0,-85.333317)">
    <rect
       style="opacity:1;fill:#333333;fill-opacity:0.94117647;stroke:none;stroke-width:0;stroke-linecap:round;stroke-linejoin:round;stroke-miterlimit:4;stroke-dasharray:none;stroke-dashoffset:0;stroke-opacity:1;paint-order:stroke markers fill"
       id="rect5885"
       width="211.66667"
       height="211.66667"
       x="-0.014821778"
       y="85.336319"
       ry="105.83334" />
    <g
       id="g6053"
       transform="matrix(-4.806585,0,0,4.9963437,392.45855,113.70795)"
       style="fill:#cddc39;fill-opacity:1;stroke:#cddc23;stroke-width:0;stroke-miterlimit:4;stroke-dasharray:none;stroke-opacity:1">
      <path
         d="M 19.494,0 H 7.948 C 6.843,0 5.951,0.896 5.951,1.999 v 23.446 c 0,1.102 0.892,1.997 1.997,1.997 h 11.546 c 1.103,0 1.997,-0.895 1.997,-1.997 V 1.999 C 21.491,0.896 20.597,0 19.494,0 Z m -8.622,1.214 h 5.7 c 0.144,0 0.261,0.215 0.261,0.481 0,0.266 -0.117,0.482 -0.261,0.482 h -5.7 c -0.145,0 -0.26,-0.216 -0.26,-0.482 0,-0.266 0.115,-0.481 0.26,-0.481 z m 2.85,24.255 c -0.703,0 -1.275,-0.572 -1.275,-1.276 0,-0.704 0.572,-1.274 1.275,-1.274 0.701,0 1.273,0.57 1.273,1.274 0,0.704 -0.572,1.276 -1.273,1.276 z M 19.995,21.1 H 7.448 V 3.373 h 12.547 z"
         id="path6021"
         inkscape:connector-curvature="0"
         style="fill:#cddc39;fill-opacity:1;stroke:#cddc23;stroke-width:0;stroke-miterlimit:4;stroke-dasharray:none;stroke-opacity:1" />
      <g
         id="g6023"
         style="fill:#cddc39;fill-opacity:1;stroke:#cddc23;stroke-width:0;stroke-miterlimit:4;stroke-dasharray:none;stroke-opacity:1" />
      <g
         id="g6025"
         style="fill:#cddc39;fill-opacity:1;stroke:#cddc23;stroke-width:0;stroke-miterlimit:4;stroke-dasharray:none;stroke-opacity:1" />
      <g
         id="g6027"
         style="fill:#cddc39;fill-opacity:1;stroke:#cddc23;stroke-width:0;stroke-miterlimit:4;stroke-dasharray:none;stroke-opacity:1" />
      <g
         id="g6029"
         style="fill:#cddc39;fill-opacity:1;stroke:#cddc23;stroke-width:0;stroke-miterlimit:4;stroke-dasharray:none;stroke-opacity:1" />
      <g
         id="g6031"
         style="fill:#cddc39;fill-opacity:1;stroke:#cddc23;stroke-width:0;stroke-miterlimit:4;stroke-dasharray:none;stroke-opacity:1" />
      <g
         id="g6033"
         style="fill:#cddc39;fill-opacity:1;stroke:#cddc23;stroke-width:0;stroke-miterlimit:4;stroke-dasharray:none;stroke-opacity:1" />
      <g
         id="g6035"
         style="fill:#cddc39;fill-opacity:1;stroke:#cddc23;stroke-width:0;stroke-miterlimit:4;stroke-dasharray:none;stroke-opacity:1" />
      <g
         id="g6037"
         style="fill:#cddc39;fill-opacity:1;stroke:#cddc23;stroke-width:0;stroke-miterlimit:4;stroke-dasharray:none;stroke-opacity:1" />
      <g
         id="g6039"
         style="fill:#cddc39;fill-opacity:1;stroke:#cddc23;stroke-width:0;stroke-miterlimit:4;stroke-dasharray:none;stroke-opacity:1" />
      <g
         id="g6041"
         style="fill:#cddc39;fill-opacity:1;stroke:#cddc23;stroke-width:0;stroke-miterlimit:4;stroke-dasharray:none;stroke-opacity:1" />
      <g
         id="g6043"
         style="fill:#cddc39;fill-opacity:1;stroke:#cddc23;stroke-width:0;stroke-miterlimit:4;stroke-dasharray:none;stroke-opacity:1" />
      <g
         id="g6045"
         style="fill:#cddc39;fill-opacity:1;stroke:#cddc23;stroke-width:0;stroke-miterlimit:4;stroke-dasharray:none;stroke-opacity:1" />
      <g
         id="g6047"
         style="fill:#cddc39;fill-opacity:1;stroke:#cddc23;stroke-width:0;stroke-miterlimit:4;stroke-dasharray:none;stroke-opacity:1" />
      <g
         id="g6049"
         style="fill:#cddc39;fill-opacity:1;stroke:#cddc23;stroke-width:0;stroke-miterlimit:4;stroke-dasharray:none;stroke-opacity:1" />
      <g
         id="g6051"
         style="fill:#cddc39;fill-opacity:1;stroke:#cddc23;stroke-width:0;stroke-miterlimit:4;stroke-dasharray:none;stroke-opacity:1" />
    </g>
    <path
       style="fill:#fdd835;fill-opacity:1;stroke:#fdd835;stroke-width:6.3499999;stroke-linecap:round;stroke-linejoin:miter;stroke-miterlimit:4;stroke-dasharray:none;stroke-opacity:1"
       d="m 326.31859,158.84545 -0.54248,39.50825"
       id="path7994"
       inkscape:connector-curvature="0" />
    <path
       style="fill:#fdd835;fill-opacity:1;stroke:#fdd835;stroke-width:6.3499999;stroke-linecap:round;stroke-linejoin:miter;stroke-miterlimit:4;stroke-dasharray:none;stroke-opacity:1"
       d="M 325.25091,198.37752 310.81834,186.61766"
       id="path7998"
       inkscape:connector-curvature="0" />
    <path
       style="fill:#fdd835;fill-opacity:1;stroke:#fdd835;stroke-width:6.3499999;stroke-linecap:round;stroke-linejoin:miter;stroke-miterlimit:4;stroke-dasharray:none;stroke-opacity:1"
       d="m 326.30925,198.37752 14.43256,-11.75986"
       id="path7998-0"
       inkscape:connector-curvature="0" />
    <path
       style="fill:#808080;fill-opacity:1;stroke-width:1.47339845"
       d="m 93.62131,178.83232 c -2.904069,-3.64224 -11.054909,-1.90805 -20.38152,4.33179 -6.48148,4.57343 -17.282964,23.91178 -18.454315,28.42185 -1.171352,4.51008 7.222599,3.39913 9.018671,2.34271 2.842186,-1.66936 10.866313,-14.02675 11.667842,-15.25999 0.803002,-1.23471 6.11313,-1.30101 10.191497,-2.16737 1.168405,-4.51007 6.354767,-15.1981 7.957825,-17.66899 z"
       id="path8712"
       inkscape:connector-curvature="0" />
    <path
       style="fill:#808080;fill-opacity:1;stroke-width:1.47339845"
       d="m 125.74876,199.69859 c 4.51155,1.16987 6.24279,9.32219 4.33179,20.38004 -1.54412,7.78249 -14.81649,25.51632 -18.45578,28.42038 -3.64519,2.90849 -6.04241,-5.21435 -5.80962,-7.28153 0.36983,-3.27831 8.39396,-15.63128 9.19696,-16.86746 0.803,-1.23471 -1.29954,-6.11313 -2.16884,-10.19003 3.64518,-2.90996 11.30096,-11.99199 12.90549,-14.4614 z"
       id="path8714"
       inkscape:connector-curvature="0" />
    <path
       style="fill:#666666;fill-opacity:1;stroke-width:1.47339845"
       d="m 154.6259,120.06582 c -3.71002,-2.40753 -27.79566,-0.48032 -46.25734,27.94006 -15.246732,23.48007 -23.944203,47.6939 -24.314026,50.96779 3.708544,2.41048 13.593573,8.82713 13.593573,8.82713 0,0 9.886503,6.41813 13.593573,8.82566 2.84366,-1.66789 22.22769,-20.70125 36.67584,-42.94367 18.45284,-28.42333 10.41103,-51.20796 6.70838,-53.61697 z"
       id="path8716"
       inkscape:connector-curvature="0" />
    <path
       style="fill:#808080;fill-opacity:1;stroke-width:1.47339845"
       d="m 144.99429,134.8941 c 4.53807,2.9468 9.50195,4.71341 14.53213,5.3897 0.51864,-11.31276 -2.8525,-18.88602 -4.90052,-20.2224 -2.05539,-1.329 -10.34473,-1.32606 -20.46845,3.74538 2.6639,4.32148 6.29878,8.13905 10.83684,11.08732 z"
       id="path8722"
       inkscape:connector-curvature="0" />
    <g
       id="g8726"
       transform="matrix(1.4733984,0,0,1.4733984,-3.9603933,119.31439)"
       style="fill:#808080;fill-opacity:1">
      <path
         style="fill:#808080;fill-opacity:1"
         d="m 76.598,72.167 c -0.6,0.923 -1.845,1.188 -2.768,0.589 L 55.38,60.776 C 54.457,60.175 54.192,58.93 54.791,58.007 l 2.18,-3.354 c 0.6,-0.922 1.844,-1.188 2.768,-0.588 l 18.449,11.982 c 0.924,0.6 1.188,1.844 0.59,2.769 z"
         id="path8724"
         inkscape:connector-curvature="0" />
    </g>
    <path
       style="fill:#808080;fill-opacity:1;stroke-width:1.47339845"
       d="m 88.259613,208.73199 c -0.884039,1.3629 -1.96846,3.08972 -3.10003,5.0125 l 13.376984,8.68716 c 1.298064,-1.8167 2.432583,-3.51405 3.318093,-4.87547 0.88551,-1.36143 1.96846,-3.08825 3.10003,-5.00956 l -13.374037,-8.68716 c -1.301011,1.81523 -2.438475,3.50964 -3.32104,4.87253 z"
       id="path8728"
       inkscape:connector-curvature="0" />
    <path
       style="fill:#808080;stroke-width:1.47339845"
       d="m 80.1073,210.46324 c -9.749478,15.01098 -22.025833,45.42634 -15.54288,49.63584 6.480006,4.2095 29.270532,-19.37224 39.02148,-34.39059 z"
       id="path8730"
       inkscape:connector-curvature="0" />
    <path
       style="fill:#fdd835;stroke-width:1.47339845;fill-opacity:1"
       d="m 82.578189,212.06777 c -9.749478,15.01098 -13.503697,29.88052 -8.386584,33.20303 5.118586,3.32399 17.172458,-6.15586 26.921935,-21.16537 z"
       id="path8732"
       inkscape:connector-curvature="0" />
    <ellipse
       transform="rotate(-147.00279)"
       style="fill:#808080;fill-opacity:1;stroke-width:1.47340345"
       cx="-195.81731"
       cy="-126.99025"
       rx="5.1569118"
       ry="25.046385"
       id="ellipse8734" />
  </g>
</svg>
